<?xml version="1.0" encoding="UTF-8" standalone="no"?>
<!-- Created with Inkscape (http://www.inkscape.org/) -->

<svg
   xmlns:dc="http://purl.org/dc/elements/1.1/"
   xmlns:cc="http://creativecommons.org/ns#"
   xmlns:rdf="http://www.w3.org/1999/02/22-rdf-syntax-ns#"
   xmlns:svg="http://www.w3.org/2000/svg"
   xmlns="http://www.w3.org/2000/svg"
   xmlns:sodipodi="http://sodipodi.sourceforge.net/DTD/sodipodi-0.dtd"
   xmlns:inkscape="http://www.inkscape.org/namespaces/inkscape"
   id="svg2"
   version="1.1"
   inkscape:version="0.91 r13725"
   xml:space="preserve"
   width="323.09189"
   height="134.74475"
   viewBox="0 0 323.09189 134.74475"
   sodipodi:docname="ebury.ai.svg"><metadata
     id="metadata8"><rdf:RDF><cc:Work
         rdf:about=""><dc:format>image/svg+xml</dc:format><dc:type
           rdf:resource="http://purl.org/dc/dcmitype/StillImage" /><dc:title></dc:title></cc:Work></rdf:RDF></metadata><defs
     id="defs6"><clipPath
       clipPathUnits="userSpaceOnUse"
       id="clipPath16"><path
         d="m 0,841.89 595.28,0 L 595.28,0 0,0 0,841.89 Z"
         id="path18"
         inkscape:connector-curvature="0" /></clipPath><clipPath
       clipPathUnits="userSpaceOnUse"
       id="clipPath36"><path
         d="m 49.2009,463.099 6.9189,0 0,-6.919 -6.9189,0 0,6.919 z"
         id="path38"
         inkscape:connector-curvature="0" /></clipPath><clipPath
       clipPathUnits="userSpaceOnUse"
       id="clipPath50"><path
         d="m 181.172,444.392 7.175,0 0,-6.919 -7.175,0 0,6.919 z"
         id="path52"
         inkscape:connector-curvature="0" /></clipPath><clipPath
       clipPathUnits="userSpaceOnUse"
       id="clipPath68"><path
         d="m 464.59,446.417 0,-14.349 c -1.281,2.049 -4.1,3.33 -6.918,3.33 l 0,0 c -6.151,0 -9.995,-4.612 -9.995,-10.506 l 0,0 c 0,-5.894 3.844,-10.507 9.995,-10.507 l 0,0 c 2.818,0 5.381,1.282 6.918,3.332 l 0,0 0,-2.819 3.844,0 0,31.519 -3.844,0 z m -12.556,-21.782 c 0,4.101 2.562,6.92 6.406,6.92 l 0,0 c 3.844,0 6.406,-2.819 6.406,-6.92 l 0,0 c 0,-3.843 -2.562,-6.918 -6.406,-6.918 l 0,0 c -3.844,0 -6.406,2.819 -6.406,6.918 m -68.421,21.782 0,-31.775 3.844,0 0,2.818 c 1.537,-2.05 4.357,-3.33 6.919,-3.33 l 0,0 c 6.15,0 9.994,4.612 9.994,10.505 l 0,0 c 0,6.151 -3.844,10.507 -9.994,10.507 l 0,0 c -2.818,0 -5.637,-1.281 -6.919,-3.331 l 0,0 0,14.606 -3.844,0 z m 4.101,-21.782 c 0,4.101 2.562,6.92 6.406,6.92 l 0,0 c 3.844,0 6.406,-2.819 6.406,-6.92 l 0,0 c 0,-3.843 -2.562,-6.918 -6.406,-6.918 l 0,0 c -3.844,0 -6.406,2.819 -6.406,6.918 m -75.852,21.782 -0.512,0 0,-31.519 3.843,0 0,10.25 c 0,4.613 2.563,6.663 5.638,6.663 l 0,0 c 2.562,0 4.613,-1.282 4.613,-5.126 l 0,0 0,-11.787 3.844,0 0,12.813 c 0,5.125 -3.331,7.431 -7.175,7.431 l 0,0 c -2.819,0 -5.382,-1.537 -6.407,-3.587 l 0,0 0,14.862 -3.844,0 z m 218.585,-8.968 4.613,-0.513 c 0.256,2.818 2.05,4.612 4.869,4.612 l 0,0 c 2.307,0 4.356,-1.794 4.356,-4.356 l 0,0 c 0,-2.562 -2.049,-4.1 -3.843,-5.894 l 0,0 c -2.307,-2.049 -3.075,-2.562 -3.075,-5.638 l 0,0 0,-2.562 3.844,0 0,1.794 c 0,2.562 0.255,3.075 2.05,4.612 l 0,0 c 0.521,0.396 2.538,2.003 3.074,2.819 l 0,0 c 0.563,0.855 1.794,3.075 1.794,5.126 l 0,0 c 0,4.869 -3.844,7.687 -8.457,7.687 l 0,0 c -4.868,0 -8.456,-2.818 -9.225,-7.687 m -226.272,6.918 -6.406,-23.575 -6.92,23.575 -4.612,0 -6.919,-23.575 -6.407,23.575 -4.1,0 8.201,-29.469 4.099,0 7.176,24.088 7.175,-24.088 4.1,0 8.712,29.469 -4.099,0 z m 53.813,-4.1 0,-5.637 -4.356,0 0,-3.588 4.356,0 0,-10.25 c 0,-3.075 0,-6.662 5.894,-6.662 l 0,0 c 0.768,0 2.562,0.255 3.332,0.768 l 0,0 0,3.331 c -0.77,-0.512 -1.794,-0.512 -2.564,-0.512 l 0,0 c -2.819,0 -2.819,2.306 -2.819,4.612 l 0,0 0,8.969 5.383,0 0,3.332 -5.383,0 0,5.637 -3.843,0 z m 153.753,-10.763 c 0,-3.844 2.819,-4.869 6.15,-5.637 l 0,0 c 1.794,-0.512 4.869,-0.769 4.869,-3.075 l 0,0 c 0,-1.794 -2.306,-2.563 -4.1,-2.563 l 0,0 c -2.307,0 -3.587,1.025 -4.869,2.307 l 0,0 -2.819,-2.307 c 2.05,-2.819 4.356,-3.587 7.688,-3.587 l 0,0 c 3.844,0 7.943,1.793 7.943,6.15 l 0,0 c 0,3.588 -2.305,4.868 -5.637,5.638 l 0,0 c -1.794,0.255 -5.125,0.768 -5.125,3.074 l 0,0 c 0,1.538 1.537,2.307 3.331,2.307 l 0,0 c 2.05,0 3.332,-1.025 4.101,-2.05 l 0,0 2.562,2.562 c -1.282,2.307 -4.101,3.332 -6.663,3.332 l 0,0 c -3.587,0 -7.431,-2.05 -7.431,-6.151 m -38.695,-4.356 c 0,-5.894 4.101,-10.506 10.25,-10.506 l 0,0 c 3.844,0 6.663,1.281 8.713,4.1 l 0,0 -2.819,2.05 c -1.537,-1.794 -3.075,-3.075 -5.381,-3.075 l 0,0 c -3.331,0 -6.662,2.05 -6.662,5.638 l 0,0 0,0.512 15.887,0 0,1.281 c 0,5.125 -2.818,10.507 -9.738,10.507 l 0,0 c -5.893,0 -10.25,-4.613 -10.25,-10.507 m 10.25,6.92 c 3.844,0 5.638,-2.307 5.638,-5.638 l 0,0 -11.787,0 c 0,2.562 2.305,5.638 6.149,5.638 m 17.938,-0.513 0,3.075 -3.844,0 0,-19.988 3.844,0 0,9.993 c 0,4.357 2.05,6.407 5.638,6.407 l 0,0 c 0.513,0 1.282,0 1.794,-0.256 l 0,0 0.256,4.1 c -0.512,0.256 -1.281,0.256 -1.794,0.256 l 0,0 c -2.306,0 -4.869,-1.537 -5.894,-3.587 m -63.295,0 0,3.075 -3.843,0 0,-19.988 3.843,0 0,9.993 c 0,4.357 2.05,6.407 5.638,6.407 l 0,0 c 0.513,0 1.281,0 1.794,-0.256 l 0,0 0.256,4.1 c -0.512,0.256 -1.281,0.256 -1.794,0.256 l 0,0 c -2.306,0 -4.869,-1.537 -5.894,-3.587 m -29.725,-6.92 c 0,-5.893 4.612,-10.505 10.506,-10.505 l 0,0 c 5.895,0 10.507,4.612 10.507,10.505 l 0,0 c 0,5.894 -4.612,10.507 -10.507,10.507 l 0,0 c -5.894,0 -10.506,-4.613 -10.506,-10.507 m 4.1,0.257 c 0,4.1 2.563,6.919 6.406,6.919 l 0,0 c 3.844,0 6.407,-2.819 6.407,-6.919 l 0,0 c 0,-4.1 -2.306,-6.919 -6.407,-6.919 l 0,0 c -3.843,0 -6.406,2.819 -6.406,6.919 m -77.132,7.431 2.818,-2.562 c 1.281,1.025 2.819,2.307 5.638,2.307 l 0,0 c 3.075,0 4.612,-2.051 4.612,-4.101 l 0,0 0,-0.769 -2.818,0 c -6.151,0 -11.019,-1.793 -11.019,-6.919 l 0,0 c 0,-3.844 3.331,-5.894 6.918,-5.894 l 0,0 c 3.076,0 5.126,1.025 6.919,3.588 l 0,0 0,-3.075 3.331,0 c -0.255,1.025 -0.255,2.306 -0.255,3.588 l 0,0 0,9.993 c 0,3.589 -2.307,6.663 -8.201,6.663 l 0,0 c -2.819,0 -5.893,-0.769 -7.943,-2.819 m 2.562,-11.787 c 0,3.331 4.356,3.844 7.944,3.844 l 0,0 2.049,0 0,-1.538 c 0,-2.563 -1.537,-5.638 -5.637,-5.638 l 0,0 c -2.562,0 -4.356,1.025 -4.356,3.332 m 198.597,-3.332 c 0,-1.537 1.282,-2.819 2.819,-2.819 l 0,0 c 1.538,0 2.819,1.282 2.819,2.819 l 0,0 c 0,1.538 -1.281,2.819 -2.819,2.819 l 0,0 c -1.281,0 -2.819,-1.281 -2.819,-2.819"
         id="path70"
         inkscape:connector-curvature="0" /></clipPath><linearGradient
       x1="0"
       y1="0"
       x2="1"
       y2="0"
       gradientUnits="userSpaceOnUse"
       gradientTransform="matrix(299.27237,0,0,-299.27237,259.47086,430.27335)"
       spreadMethod="pad"
       id="linearGradient76"><stop
         style="stop-opacity:1;stop-color:#00bdf2"
         offset="0"
         id="stop78" /><stop
         style="stop-opacity:1;stop-color:#56c5d0"
         offset="1"
         id="stop80" /></linearGradient></defs><sodipodi:namedview
     pagecolor="#ffffff"
     bordercolor="#666666"
     borderopacity="1"
     objecttolerance="10"
     gridtolerance="10"
     guidetolerance="10"
     inkscape:pageopacity="0"
     inkscape:pageshadow="2"
     inkscape:window-width="1366"
     inkscape:window-height="717"
     id="namedview4"
     showgrid="false"
     fit-margin-top="15"
     fit-margin-left="15"
     fit-margin-right="15"
     fit-margin-bottom="15"
     inkscape:zoom="0.63429547"
     inkscape:cx="234.53606"
     inkscape:cy="-6.0070249"
     inkscape:window-x="0"
     inkscape:window-y="0"
     inkscape:window-maximized="1"
     inkscape:current-layer="g10" /><g
     id="g10"
     inkscape:groupmode="layer"
     inkscape:label="logo ebury what borders_rectified"
     transform="matrix(1.25,0,0,-1.25,15,593.87387)"><g
       id="g12"><g
         id="g14"
         clip-path="url(#clipPath16)"><g
           id="g20"
           transform="translate(181.1722,437.4735)"><path
             d="m 0,0 0,6.919 c -7.431,0 -11.788,-3.588 -14.607,-7.944 l 0,7.944 -15.375,0 0,-6.919 7.175,0 0,-30.238 -7.175,0 -7.175,0 0,37.157 -16.657,0 0,-6.919 7.688,0 0,-25.882 c -3.844,-3.331 -8.713,-5.637 -14.094,-5.637 -5.125,0 -6.919,3.075 -6.919,7.944 l 0,30.494 -15.888,0 0,-6.919 7.176,0 0,-24.344 c 0,-9.482 5.125,-14.094 13.069,-14.094 6.662,0 12.556,2.562 17.169,6.919 l 0,-5.638 15.631,0 26.907,0 0,6.919 -11.015,0 -0.004,23.575 C -11.275,-3.331 -6.406,0 0,0"
             style="fill:#00465e;fill-opacity:1;fill-rule:nonzero;stroke:none"
             id="path22"
             inkscape:connector-curvature="0" /></g><g
           id="g24"
           transform="translate(0,463.0989)"><path
             d="m 0,0 0,-6.919 7.688,0 0,-48.945 -7.688,0 0,-7.175 49.201,0 0,14.094 -6.919,0 0,-6.919 -25.625,0 0,23.063 25.369,0 0,7.176 -25.369,0 0,18.706 25.625,0 0,-7.175 6.919,0 L 49.201,0 0,0 Z"
             style="fill:#00465e;fill-opacity:1;fill-rule:nonzero;stroke:none"
             id="path26"
             inkscape:connector-curvature="0" /></g><g
           id="g28"
           transform="translate(76.3608,405.9541)"><path
             d="m 0,0 c -3.075,0 -7.944,2.05 -11.531,5.125 l 0,23.832 c 3.075,2.05 6.918,3.844 11.275,3.844 8.712,0 12.3,-6.919 12.3,-15.632 C 12.044,8.456 9.481,0 0,0 m 1.794,39.463 c -5.382,0 -9.738,-1.794 -13.325,-4.1 l 0,21.782 -8.713,0 0,-63.039 8.713,0 0,4.1 c 3.587,-2.819 8.2,-5.125 13.325,-5.125 12.3,0 19.219,10.507 19.219,24.088 0,13.582 -6.919,22.294 -19.219,22.294"
             style="fill:#00465e;fill-opacity:1;fill-rule:nonzero;stroke:none"
             id="path30"
             inkscape:connector-curvature="0" /></g><g
           id="g32"><g
             id="g34" /><g
             id="g40"><g
               clip-path="url(#clipPath36)"
               id="g42"
               style="opacity:0.5"><path
                 d="m 49.201,463.099 6.919,0 0,-6.919 -6.919,0 0,6.919 z"
                 style="fill:#00465e;fill-opacity:1;fill-rule:nonzero;stroke:none"
                 id="path44"
                 inkscape:connector-curvature="0" /></g></g></g><g
           id="g46"><g
             id="g48" /><g
             id="g54"><g
               clip-path="url(#clipPath50)"
               id="g56"
               style="opacity:0.5"><path
                 d="m 181.172,444.392 7.175,0 0,-6.919 -7.175,0 0,6.919 z"
                 style="fill:#00465e;fill-opacity:1;fill-rule:nonzero;stroke:none"
                 id="path58"
                 inkscape:connector-curvature="0" /></g></g></g><g
           id="g60"
           transform="translate(212.6915,444.3923)"><path
             d="m 0,0 0,-6.919 6.919,0 -12.044,-34.338 -10.25,34.338 6.919,0 0,6.919 -15.888,0 0,-6.919 11.787,-37.157 6.663,0 -2.306,-6.406 c -2.306,-6.407 -7.688,-7.688 -14.094,-7.688 l -2.05,0 0,-6.919 2.05,0 c 11.275,0 18.45,2.819 22.55,13.838 l 15.632,44.332 5.894,0 0,6.919 L 0,0 Z"
             style="fill:#00465e;fill-opacity:1;fill-rule:nonzero;stroke:none"
             id="path62"
             inkscape:connector-curvature="0" /></g></g></g></g></svg>