<?xml version="1.0" encoding="UTF-8" standalone="no"?>
<!-- Created with Inkscape (http://www.inkscape.org/) -->

<svg
   xmlns:dc="http://purl.org/dc/elements/1.1/"
   xmlns:cc="http://creativecommons.org/ns#"
   xmlns:rdf="http://www.w3.org/1999/02/22-rdf-syntax-ns#"
   xmlns:svg="http://www.w3.org/2000/svg"
   xmlns="http://www.w3.org/2000/svg"
   xmlns:sodipodi="http://sodipodi.sourceforge.net/DTD/sodipodi-0.dtd"
   xmlns:inkscape="http://www.inkscape.org/namespaces/inkscape"
   width="744.09448819"
   height="1052.3622047"
   id="svg3069"
   version="1.1"
   inkscape:version="0.48.4 r9939"
   sodipodi:docname="New document 2">
  <defs
     id="defs3071" />
  <sodipodi:namedview
     id="base"
     pagecolor="#ffffff"
     bordercolor="#666666"
     borderopacity="1.0"
     inkscape:pageopacity="0.0"
     inkscape:pageshadow="2"
     inkscape:zoom="0.49497475"
     inkscape:cx="161.23927"
     inkscape:cy="578.87365"
     inkscape:document-units="px"
     inkscape:current-layer="layer1"
     showgrid="false"
     inkscape:window-width="958"
     inkscape:window-height="1059"
     inkscape:window-x="0"
     inkscape:window-y="19"
     inkscape:window-maximized="0" />
  <metadata
     id="metadata3074">
    <rdf:RDF>
      <cc:Work
         rdf:about="">
        <dc:format>image/svg+xml</dc:format>
        <dc:type
           rdf:resource="http://purl.org/dc/dcmitype/StillImage" />
        <dc:title></dc:title>
      </cc:Work>
    </rdf:RDF>
  </metadata>
  <g
     inkscape:label="Layer 1"
     inkscape:groupmode="layer"
     id="layer1">
    <path
       inkscape:connector-curvature="0"
       id="path3225"
       d="m 513.40459,861.81605 c -1.74505,-0.3552 -4.83854,-1.5011 -6.87441,-2.5466 -6.31358,-3.2419 -9.79102,-7.8381 -10.60936,-14.0223 l -0.36736,-2.7762 7.94134,0 7.94126,0 0.356,1.8974 c 0.49125,2.6188 4.24633,6.3054 7.25018,7.1181 1.26193,0.3414 3.88294,0.5083 5.82449,0.3708 7.32775,-0.5186 10.86613,-4.6976 15.21271,-17.9668 1.7507,-5.3446 0.9198,-5.9255 -3.32325,-2.3232 -4.58313,3.891 -7.1128,4.787 -13.56877,4.8061 -4.68525,0.015 -6.0853,-0.19 -8.96441,-1.3056 -6.22876,-2.4134 -11.51289,-8.8395 -13.31251,-16.1894 -0.89679,-3.6628 -0.75603,-14.4919 0.2489,-19.1491 2.6851,-12.4431 10.54435,-23.0029 19.9128,-26.7551 1.56706,-0.6276 4.37526,-1.0444 8.22398,-1.2203 8.36834,-0.3828 11.55446,0.5993 15.83649,4.8813 1.74504,1.7451 3.4617,3.6487 3.81477,4.2304 0.63551,1.0471 0.65223,1.0457 1.67238,-0.1336 0.56672,-0.6552 1.1876,-2.202 1.37966,-3.4372 0.68797,-4.4238 0.0167,-4.0967 8.41904,-4.0967 l 7.547,0 -6.71816,33.4467 c -6.92052,34.4541 -7.95704,38.4313 -11.32571,43.4581 -6.02332,8.988 -13.99255,12.5102 -28.05624,12.4003 -2.90841,-0.023 -6.71578,-0.3319 -8.46082,-0.6871 z m 20.32781,-38.1573 c 7.21909,-2.1439 13.46651,-13.5707 13.42198,-24.5495 -0.0209,-5.1476 -0.77375,-7.7036 -3.17825,-10.7899 -3.52727,-4.5274 -8.1374,-5.8441 -14.05855,-4.0152 -6.28122,1.94 -10.70612,7.8287 -13.15267,17.5037 -1.62407,6.4223 -1.27304,11.385 1.14084,16.1279 1.57217,3.0891 2.2602,3.8683 4.49437,5.0894 3.12665,1.7089 6.98495,1.9246 11.33228,0.6336 z m -272.83046,36.3763 c 0,-0.5191 1.77045,-9.7401 3.93435,-20.491 12.32236,-61.2213 12.69943,-63.0709 13.33646,-65.4207 0.22381,-0.8255 1.05271,-0.9254 7.67853,-0.9254 l 7.42763,0 -0.34462,2.2981 c -0.25244,1.6833 -0.14154,2.4666 0.41413,2.9279 0.61265,0.5084 1.22192,0.2288 3.16362,-1.4517 1.32264,-1.1447 3.78632,-2.7577 5.47482,-3.5842 2.66693,-1.3056 3.81359,-1.5285 8.73392,-1.6975 8.29274,-0.2849 11.95621,0.9152 16.55313,5.4225 3.69328,3.6213 5.65861,7.1486 6.65778,11.949 0.9412,4.5218 0.30962,17.7951 -1.09451,23.0028 -3.41001,12.6472 -11.34262,22.5946 -20.50158,25.7089 -2.95991,1.0065 -4.71771,1.2201 -10.18716,1.2381 -6.33408,0.021 -6.75682,-0.048 -10.1265,-1.6396 -2.69332,-1.2725 -3.98853,-2.2937 -5.53308,-4.3626 -1.99143,-2.6674 -3.17631,-3.3283 -3.65723,-2.0401 -0.1357,0.3635 -1.30005,5.5392 -2.58744,11.5014 -1.28738,5.9622 -2.73469,12.5656 -3.21624,14.6742 l -0.87554,3.8338 -7.62524,0 c -6.96664,0 -7.62523,-0.082 -7.62523,-0.9439 z m 44.08499,-33.7505 c 6.1073,-2.081 11.689,-10.9804 13.39134,-21.3511 0.74581,-4.5435 0.78686,-5.9966 0.25675,-9.0878 -0.74842,-4.3646 -1.54585,-6.0421 -4.19647,-8.8283 -4.81449,-5.0605 -13.70858,-4.4967 -19.43752,1.2322 -2.67169,2.6717 -5.44075,7.8692 -7.20644,13.5265 -0.97161,3.113 -1.23231,5.1678 -1.23826,9.76 -0.006,5.3751 0.10855,6.0461 1.52259,8.8366 0.84155,1.6609 2.04195,3.5006 2.6675,4.0882 2.72774,2.5626 9.51931,3.4324 14.24051,1.8237 z m -208.277829,12.9839 c -15.60827,-2.0877 -25.5621,-10.8126 -29.3841,-25.7565 -2.96607,-11.5972 -1.29958,-28.8201 3.84958,-39.7852 6.98054,-14.865 17.48878,-23.8709 31.257159,-26.7883 4.93047,-1.0448 18.69812,-0.713 23.36145,0.5628 7.76997,2.1259 16.44917,8.4218 19.26318,13.9737 1.5019,2.9631 3.21088,9.6698 3.21088,12.6008 l 0,2.295 -8.72524,0 c -8.69346,0 -8.72524,-0.01 -8.73323,-1.1898 -0.0104,-1.5541 -1.09683,-4.9703 -2.27737,-7.1616 -1.17035,-2.1724 -5.79163,-5.1806 -9.17156,-5.9702 -3.27589,-0.7653 -10.28806,-0.7675 -13.5539,-0.01 -4.39083,1.0261 -9.800019,4.713 -12.909399,8.7991 -13.79197,18.1241 -12.30061,46.2086 2.75985,51.9719 6.008539,2.2993 14.209059,1.871 20.289699,-1.0598 3.59193,-1.7313 7.42773,-5.8934 9.6623,-10.4843 2.58522,-5.3113 2.77114,-6.0633 1.75137,-7.0831 -0.71048,-0.7105 -2.26584,-0.8489 -9.53638,-0.8489 -10.17321,0 -9.33942,0.8898 -7.55611,-8.0642 l 1.13217,-5.6847 17.64069,0 c 9.70238,0 17.64069,0.092 17.64069,0.2036 0,0.1119 -1.55217,7.7861 -3.44928,17.0538 -1.89708,9.2677 -4.06675,20.0033 -4.82146,23.857 l -1.37222,7.0066 -5.22575,0 -5.22575,0 0,-3.1296 c 0,-5.806 -0.83867,-6.0982 -5.39486,-1.88 -6.53357,6.049 -13.7932,7.996 -24.482409,6.5663 z m 111.914759,-0.8903 c -3.63604,-1.0704 -7.50937,-4.7908 -8.73611,-8.3911 -1.69365,-4.9706 -1.22129,-9.2627 3.73298,-33.9184 l 4.59557,-22.8707 7.89209,0 7.8921,0 -0.284,1.1898 c -0.15615,0.6544 -1.733,8.5666 -3.50402,17.5827 -1.77102,9.016 -3.46043,17.2757 -3.75426,18.3548 -0.29385,1.0791 -0.67926,3.8424 -0.8565,6.1408 -0.38115,4.9428 0.28705,6.5178 3.72879,8.7895 1.99022,1.3137 2.51915,1.4178 6.2035,1.2209 3.15303,-0.1685 4.55024,-0.5214 6.43342,-1.6251 4.23938,-2.4844 8.1977,-8.2277 9.90594,-14.3729 0.40425,-1.4542 2.29296,-10.3777 4.19717,-19.83 l 3.46218,-17.1861 7.7998,-0.1463 c 5.17811,-0.097 7.79983,0.04 7.79983,0.4077 0,0.3048 -1.67462,8.8183 -3.72136,18.9188 -2.04673,10.1006 -4.41543,22.0531 -5.26374,26.5611 -1.39348,7.4052 -2.73153,14.1076 -3.45732,17.3182 -0.26321,1.1644 -0.42736,1.1899 -7.66211,1.1899 -4.06623,0 -7.39313,-0.1984 -7.39313,-0.4406 0,-0.2424 0.27326,-1.8014 0.60728,-3.4645 0.87942,-4.3791 0.19665,-4.646 -3.57111,-1.3962 -3.40021,2.9327 -8.14831,5.4622 -11.85733,6.3169 -3.45523,0.7961 -10.9234,0.6124 -14.18966,-0.3492 z m 181.3056,-0.079 c -5.95647,-1.6209 -9.24083,-3.7945 -12.78859,-8.4637 -3.48299,-4.5838 -4.75413,-8.6934 -5.06059,-16.3611 -0.56911,-14.2383 3.02028,-24.3335 11.77472,-33.1168 6.58467,-6.6064 11.95809,-8.7459 21.96501,-8.7459 10.00235,0 16.16102,2.36 21.74947,8.3345 4.53726,4.8507 6.23026,10.1373 6.24268,19.4936 0.004,3.2356 -0.14091,6.6266 -0.32268,7.5355 l -0.33051,1.6525 -22.6076,0 c -19.60993,0 -22.6963,0.1068 -23.27653,0.806 -1.02409,1.2339 -0.33573,8.1918 1.10482,11.1676 1.95133,4.0309 6.80511,6.5256 12.70792,6.5315 5.17147,0.01 7.74052,-1.3945 11.70961,-6.3795 l 2.07591,-2.6072 7.65827,0 7.65828,0 -0.34971,1.1898 c -1.68148,5.7211 -9.41528,14.6601 -14.82709,17.1378 -6.2584,2.8651 -18.09684,3.7267 -25.08339,1.8254 z m 28.56234,-39.9916 c 0.97701,-1.1772 0.25009,-6.1292 -1.36868,-9.3236 -1.14311,-2.2559 -1.79442,-2.8596 -4.3539,-4.0359 -8.05693,-3.7027 -17.61099,0.1201 -22.01347,8.8079 -1.4843,2.9292 -1.71488,4.5912 -0.69408,5.0031 0.36355,0.1468 6.75934,0.2855 14.21289,0.3085 11.50005,0.035 13.65262,-0.08 14.21724,-0.76 z m 162.39562,40.1552 c -3.65266,-0.9824 -7.45209,-3.782 -9.53239,-7.0239 -4.28975,-6.6849 -2.83417,-16.9113 3.21378,-22.5796 5.989,-5.613 8.53153,-6.53 23.22866,-8.3779 14.18367,-1.7833 16.03813,-2.4225 17.96064,-6.191 1.34099,-2.6285 1.28711,-5.007 -0.17139,-7.5611 -1.63585,-2.8649 -4.33833,-4.1409 -9.38949,-4.4333 -7.05021,-0.4081 -11.8771,2.2173 -13.78692,7.4987 l -0.69118,1.9114 -7.32095,0 -7.32093,0 0.34345,-1.983 c 0.89383,-5.1606 5.33312,-11.4436 9.99788,-14.1504 1.17336,-0.6808 3.79913,-1.7911 5.83502,-2.4673 3.32409,-1.104 4.67232,-1.2293 13.22003,-1.2293 8.44833,0 9.95203,0.1363 13.37534,1.212 4.20594,1.3217 7.17799,3.5719 9.5703,7.2458 1.30413,2.0029 1.37794,2.4781 1.35548,8.7282 -0.0209,5.6081 -0.32706,8.0128 -2.02451,15.8641 -4.11563,19.0361 -5.09058,24.5224 -5.09058,28.6459 l 0,4.1397 -7.63864,0 -7.63864,0 -0.16116,-2.507 c -0.21103,-3.2826 -1.41147,-3.5805 -4.05362,-1.006 -4.56001,4.4431 -15.29976,6.4102 -23.28016,4.264 z m 21.34909,-11.3379 c 4.01239,-1.9947 6.67997,-5.675 8.67047,-11.9621 1.75421,-5.5407 2.06846,-8.1251 0.98685,-8.1157 -0.36353,0.01 -1.79872,0.3509 -3.18925,0.7728 -1.39053,0.422 -5.28975,1.007 -8.66494,1.3001 -10.23933,0.8893 -14.28688,3.515 -15.26576,9.903 -0.39464,2.5754 0.75085,5.9047 2.47417,7.1914 3.78622,2.8268 10.33346,3.2245 14.98846,0.9105 z m 50.68031,11.3836 c -11.24174,-2.5772 -17.09471,-8.8144 -17.09471,-18.2169 l 0,-2.6742 7.13881,0 7.13882,0 0,1.4194 c 0,2.0256 1.95915,5.8007 3.62646,6.9879 5.55782,3.9575 17.02032,3.2085 19.97797,-1.3053 1.98627,-3.0315 1.40644,-8.0068 -1.20843,-10.369 -0.53874,-0.4867 -5.7175,-2.5551 -11.5083,-4.5964 -15.99566,-5.6385 -18.32582,-7.7267 -18.72629,-16.7817 -0.29934,-6.7695 0.65182,-9.7792 4.26078,-13.4825 5.36749,-5.5079 12.18892,-7.8781 22.67319,-7.8781 8.89646,0 14.71344,1.5331 19.41056,5.1158 2.28304,1.7413 4.70665,6.8409 5.17834,10.8958 l 0.35546,3.056 -7.24929,-0.1476 -7.24923,-0.1475 -1.15401,-2.9085 c -1.53499,-3.8688 -4.12026,-5.288 -9.63263,-5.288 -7.02311,0 -10.81557,2.3723 -10.82061,6.7685 -0.006,4.2008 1.70549,5.4139 13.13883,9.3196 7.96188,2.7198 10.943,4.1985 14.37032,7.1281 3.67956,3.1452 4.95181,6.1956 4.98375,11.9491 0.0146,2.6176 -0.28556,5.8301 -0.66689,7.1388 -1.65292,5.6735 -7.16619,10.4085 -15.17072,13.0291 -3.53197,1.1564 -5.409,1.414 -11.36923,1.5605 -4.84826,0.1192 -8.18611,-0.064 -10.40295,-0.5728 z m -503.06319,-1.1971 c 0,-0.2358 1.52784,-8.0353 3.39518,-17.3324 1.86731,-9.297 4.50341,-22.6147 5.85797,-29.5949 1.35456,-6.9802 2.71052,-13.7025 3.01325,-14.9386 l 0.55039,-2.2474 7.40214,0 7.40211,0 -0.33009,1.1898 c -0.18162,0.6544 -0.48115,2.558 -0.6658,4.2304 -0.2979,2.6979 -0.22865,3.0406 0.61436,3.0406 0.52255,0 2.1995,-1.3807 3.72658,-3.0681 1.84698,-2.041 3.97233,-3.6751 6.34848,-4.8812 3.24791,-1.6486 4.06809,-1.8314 9.03998,-2.0155 5.05417,-0.187 5.46804,-0.1278 5.46839,0.783 2.1e-4,0.542 -0.62315,4.1113 -1.38523,7.9318 l -1.3856,6.9465 -5.35699,-0.2607 c -4.65909,-0.2268 -5.77037,-0.1061 -8.52982,0.9272 -4.34785,1.628 -7.69878,5.1199 -10.35741,10.7933 -2.35746,5.0307 -3.071,7.9184 -7.78176,31.4934 l -1.42648,7.1388 -7.79982,0.1464 c -4.2899,0.08 -7.79983,-0.047 -7.79983,-0.2823 z m 286.61035,0.017 c 0,-0.2263 1.55405,-8.0259 3.45344,-17.3324 1.89938,-9.3065 4.73927,-23.3458 6.31086,-31.1985 3.59042,-17.94 7.59632,-37.7025 7.95881,-39.2635 0.27085,-1.1664 0.42708,-1.1898 7.93383,-1.1898 6.94626,0 7.65613,0.086 7.64212,0.9254 -0.0167,1.0348 -1.52048,8.6471 -8.1712,41.3787 -2.51156,12.3608 -4.94937,24.3778 -5.41735,26.7045 -0.46798,2.3267 -1.58495,7.7998 -2.48218,12.1624 l -1.63132,7.9321 -7.7985,0.1463 c -4.28917,0.08 -7.79851,-0.039 -7.79851,-0.2654 z m -112.63469,-153.806 c -24.06554,-1.6077 -38.73353,-3.7966 -54.53476,-8.1383 -10.06205,-2.7648 -21.88808,-6.8515 -28.10613,-9.7125 -1.68094,-0.7735 -3.35321,-1.4063 -3.71614,-1.4063 -0.36293,0 -1.12925,-0.3155 -1.70294,-0.7011 -0.57367,-0.3857 -2.47082,-1.2678 -4.21587,-1.9603 -2.99015,-1.1868 -21.19757,-10.1427 -24.06046,-11.8351 -0.7271,-0.4298 -4.65346,-2.7091 -8.72522,-5.065 -13.63492,-7.8894 -20.50591,-12.6009 -22.34185,-15.32 -0.6544,-0.9692 -1.1898,-1.9649 -1.1898,-2.2128 0,-0.2478 10.367,-0.4506 23.03781,-0.4506 l 23.03779,0 -0.11545,13.5151 c -0.10897,12.7761 -0.0576,13.5928 0.94001,14.9386 0.58042,0.783 1.8659,1.7076 2.85661,2.0548 1.34905,0.4727 15.64992,0.6386 56.96293,0.661 l 55.16166,0.03 -0.11983,5.9931 c -0.066,3.2962 0.0672,6.2955 0.29552,6.6651 0.2284,0.3695 1.39727,1.1178 2.59746,1.6629 2.0575,0.9343 4.1309,0.9935 36.28986,1.036 23.41099,0.031 33.69308,0.2117 32.78568,0.5764 -4.24898,1.7075 -23.71233,5.801 -34.63648,7.2847 -13.34456,1.8124 -40.13114,3.0772 -50.50055,2.3844 z m 99.41466,-19.7879 c -8.57979,-0.5029 -27.67613,-1.5925 -42.43631,-2.4214 -14.76016,-0.8288 -26.83666,-1.6672 -26.83666,-1.863 0,-0.5751 17.00272,-23.2067 19.79059,-26.3425 4.30534,-4.8427 4.95912,-8.0353 2.03754,-9.9499 -1.33392,-0.8741 -5.55999,-0.9485 -67.98371,-1.1965 l -66.56139,-0.2644 8.05076,-9.5184 c 4.42793,-5.2351 8.72972,-10.5764 9.55956,-11.8694 2.48646,-3.8742 1.8836,-6.9843 -1.53804,-7.9346 -1.31053,-0.3639 -21.45668,-0.5499 -59.77459,-0.5519 -48.95165,0 -58.02055,-0.1182 -59.25317,-0.7556 -2.44512,-1.2644 -5.70592,-5.2107 -6.11724,-7.4033 -0.48524,-2.5865 0.71142,-4.4341 7.39717,-11.4208 2.74294,-2.8663 4.98717,-5.4719 4.98717,-5.79 0,-1.7131 -1.62327,-4.2352 -2.93817,-4.5653 -0.78181,-0.1962 -7.0767,-0.1862 -13.98864,0.022 l -12.56716,0.379 -0.20562,-2.1562 c -0.19916,-2.0893 -0.15595,-2.1569 1.39474,-2.1762 0.88022,-0.01 8.97717,-0.5834 17.99323,-1.2722 9.01606,-0.6887 16.44711,-1.2006 16.51341,-1.1374 0.0664,0.063 0.39493,2.0039 0.73024,4.3128 0.33533,2.3089 0.84563,4.4954 1.13399,4.859 0.40975,0.5166 8.00054,0.661 34.7447,0.661 18.82124,0 46.03859,0.1578 60.48302,0.3508 l 26.2626,0.3507 0,15.4821 c 0,11.8067 0.15698,15.5829 0.66099,15.9066 0.36356,0.2336 26.42025,0.3391 57.90375,0.2347 l 57.24275,-0.1898 0,6.6332 c 0,5.325 0.16388,6.797 0.83099,7.4641 0.74404,0.744 6.20598,0.8307 52.21912,0.829 50.29623,0 51.42471,-0.024 53.10677,-1.0498 2.07163,-1.2631 2.27232,-3.193 0.66058,-6.3523 -0.83107,-1.629 -1.48324,-2.1772 -3.04061,-2.5559 -1.0904,-0.2652 -20.6625,-1.1144 -43.49349,-1.8872 -22.83099,-0.7729 -42.5252,-1.5319 -43.7649,-1.6868 -2.72518,-0.3405 -2.95765,0.094 4.34319,-8.1176 9.30455,-10.4653 17.23115,-20.3227 18.61331,-23.1473 l 1.35014,-2.7591 -1.09831,-1.7771 c -2.15568,-3.488 2.42122,-3.2546 -69.54369,-3.5451 l -65.51103,-0.2644 8.86475,-10.576 c 11.1908,-13.3511 12.38772,-15.8039 8.84487,-18.1255 -1.29228,-0.8468 -6.1307,-0.9301 -68.37405,-1.1758 l -66.98337,-0.2644 5.61901,-6.6757 c 3.09044,-3.6716 7.66129,-9.0258 10.15744,-11.898 2.49614,-2.8723 4.69491,-5.6521 4.88615,-6.1773 0.46654,-1.2812 -0.87813,-4.3729 -2.21254,-5.087 -0.76964,-0.4119 -8.46103,-0.4263 -27.14584,-0.051 -14.33957,0.2883 -27.42941,0.5277 -29.08858,0.5321 l -3.01664,0.01 -0.35185,-1.8755 c -0.19352,-1.0315 -0.25339,-1.9739 -0.13298,-2.0942 0.3113,-0.3113 68.16412,-3.0405 68.45135,-2.7532 0.13069,0.1307 0.54904,2.1951 0.92976,4.5876 0.39815,2.5022 1.00816,4.5502 1.43596,4.8211 0.42334,0.268 26.65525,0.4743 60.89488,0.4789 l 60.15115,0.01 0,15.4939 c 0,11.3458 0.16993,15.6638 0.63457,16.1284 0.48566,0.4857 13.9486,0.6346 57.37496,0.6346 l 56.74038,0 0,6.5043 c 0,4.3537 0.20981,6.714 0.63455,7.1388 0.80696,0.8069 103.22754,0.928 105.34095,0.1244 1.75947,-0.669 2.27221,-2.7995 1.32099,-5.4894 -1.45923,-4.1264 1.18367,-3.7973 -42.78273,-5.328 -42.63458,-1.4842 -50.24274,-1.8406 -50.22377,-2.3524 0.006,-0.1832 2.04896,-2.594 4.53811,-5.357 6.486,-7.1995 17.18115,-19.9502 19.07273,-22.7384 3.06366,-4.5159 2.78616,-6.2131 -1.32655,-8.114 l -2.4666,-1.14 -63.58837,-0.1447 c -34.97359,-0.08 -63.58835,-0.2909 -63.58835,-0.4697 0,-0.1789 2.08216,-3.4032 4.627,-7.1653 2.54485,-3.7621 5.613,-8.3821 6.81809,-10.2668 1.20509,-1.8847 2.56429,-3.8391 3.02043,-4.3431 1.34168,-1.4826 2.55787,-4.8952 2.22179,-6.2342 -0.17118,-0.6821 -0.95136,-1.6597 -1.73369,-2.1724 -1.33385,-0.874 -5.53855,-0.9485 -67.50102,-1.1964 l -66.07856,-0.2644 2.6233,-3.1728 c 6.9746,-8.4356 15.97638,-19.7448 16.51047,-20.7429 0.84552,-1.5798 0.15719,-4.2986 -1.33598,-5.277 -1.07687,-0.7056 -2.51387,-0.7781 -9.57736,-0.4838 -4.57072,0.1906 -19.61352,0.812 -33.42845,1.3811 -13.81493,0.569 -26.84328,1.124 -28.95186,1.2333 l -3.83382,0.1988 0,-2.0257 c 0,-1.6776 0.20438,-2.0667 1.18981,-2.264 2.29072,-0.4588 82.34263,-4.7355 82.66195,-4.4162 0.17744,0.1774 0.5772,2.1375 0.88848,4.3559 0.4237,3.0194 0.81452,4.1664 1.5546,4.5625 0.63229,0.3384 22.61384,0.6455 60.99195,0.8522 l 60.00335,0.3232 0,15.4492 c 0,13.3057 0.11357,15.5434 0.81924,16.1291 0.66246,0.5497 11.79499,0.6099 58.16814,0.3142 l 57.34893,-0.3656 0,7.5767 c 0,5.188 0.19999,7.7768 0.63454,8.2113 0.48481,0.4848 12.71181,0.6346 51.80933,0.6346 l 51.17474,0 -0.33715,1.7186 c -0.45758,2.3324 -5.48035,16.39 -7.03804,19.6978 -0.27391,0.5817 -1.5504,3.6752 -2.83659,6.8744 -3.03151,7.5404 -15.38617,32.541 -18.05128,36.5284 -0.56808,0.8499 -1.48349,2.3782 -2.03418,3.3961 -0.55071,1.018 -1.80586,2.9535 -2.78923,4.3013 -0.9834,1.3478 -1.78798,2.6233 -1.78798,2.8345 0,0.2113 -1.18979,2.0199 -2.64399,4.0193 -1.45421,1.9993 -2.64401,3.7575 -2.64401,3.9069 0,0.5136 -5.02897,6.8915 -10.63928,13.4933 -6.2221,7.3217 -14.13878,15.1442 -22.95103,22.6781 -3.19296,2.7298 -6.52901,5.5853 -7.41339,6.3456 -3.59654,3.092 -19.9053,15.4315 -25.62529,19.3887 -10.73317,7.4252 -15.28573,10.4913 -18.50805,12.4649 -1.89047,1.1578 -5.10293,3.1543 -7.1388,4.4366 -2.03589,1.2823 -5.24836,3.2137 -7.13883,4.2921 -1.89047,1.0784 -5.15838,2.9914 -7.26201,4.2511 -2.10366,1.2597 -4.02024,2.2903 -4.25908,2.2903 -0.23887,0 -1.55996,0.7139 -2.93578,1.5864 -2.89187,1.834 -1.00635,1.7899 -22.55923,0.5267 z m 129.29743,-187.3001 c -23.26424,-1.1472 -42.3813,-2.1686 -42.48247,-2.2697 -0.10104,-0.1011 1.32417,-2.2259 3.16731,-4.7217 1.84314,-2.4958 4.54097,-6.2003 5.99518,-8.2323 1.4542,-2.032 3.91826,-5.4225 5.47563,-7.5344 3.21802,-4.3639 7.79865,-10.8795 9.25206,-13.1605 2.12182,-3.33 6.91435,-3.1063 -66.53364,-3.1063 -36.80047,0 -66.90995,-0.1793 -66.90995,-0.3984 0,-0.3667 1.47508,-2.4769 8.73317,-12.4935 1.44982,-2.0009 4.23858,-5.6893 6.19721,-8.1964 1.95863,-2.5072 3.56487,-5.0767 3.5694,-5.71 0.004,-0.6332 -0.61874,-1.6446 -1.38506,-2.2474 -1.39314,-1.0958 -1.40166,-1.0959 -69.27297,-1.0959 -37.33381,0 -67.87966,-0.2017 -67.87966,-0.4481 0,-0.2465 1.49073,-2.2097 3.31277,-4.3627 5.14389,-6.07818 15.3693,-18.53654 16.73125,-20.38484 1.10912,-1.50519 1.16499,-1.84916 0.58559,-3.60475 -0.37109,-1.12447 -1.16479,-2.17966 -1.88696,-2.50871 -0.90986,-0.41456 -11.17207,-0.16137 -38.00042,0.93727 -20.21469,0.82786 -36.84803,1.39679 -36.96302,1.26427 -0.11502,-0.13256 -0.35439,-1.00501 -0.53204,-1.93886 -0.30254,-1.59033 -0.21526,-1.71521 1.37823,-1.9713 2.00174,-0.3217 76.70582,-4.53705 80.30161,-4.5312 2.72432,0.004 2.51464,-0.36222 3.39464,5.93597 0.19165,1.37212 0.63282,2.73066 0.98022,3.01896 0.40336,0.33477 22.45295,0.65856 61.01907,0.89602 l 60.38745,0.37182 0,15.44911 c 0,13.17554 0.11816,15.54724 0.8035,16.11594 0.64212,0.533 12.32484,0.588 58.16816,0.274 l 57.36464,-0.3928 0,7.617 c 0,5.2193 0.19978,7.8167 0.63455,8.2516 0.4791,0.479 8.20663,0.6345 31.53612,0.6345 l 30.90158,0 -0.34051,4.8914 c -0.18725,2.6903 -0.57215,9.2937 -0.85533,14.6743 -0.48384,9.195 -0.67928,10.4262 -3.25317,20.491 l -2.73841,10.7082 -4.27852,-0.068 c -2.35323,-0.038 -23.31296,-1.0065 -46.57721,-2.1537 z m 8.20114,-61.1023 c 0.006,-0.2181 1.25653,-2.0623 2.77985,-4.0982 1.52332,-2.0359 3.66629,-5.0104 4.76217,-6.61 1.09585,-1.5997 3.04611,-4.33621 4.33391,-6.08126 1.28778,-1.74505 4.14982,-5.79036 6.36011,-8.98961 2.21026,-3.19925 5.18044,-7.36358 6.60032,-9.25402 2.82841,-3.76566 3.39935,-5.07993 2.46924,-5.68411 -0.33621,-0.2184 -31.24877,-0.30798 -68.69452,-0.19915 -38.68436,0.11252 -68.07617,-0.002 -68.06696,-0.2644 0.008,-0.25437 3.83722,-5.22169 8.50733,-11.0385 12.32883,-15.35607 12.77804,-15.98934 12.40271,-17.48482 -0.75391,-3.00387 3.10258,-2.82567 -70.63032,-3.26382 l -67.88977,-0.40343 4.46258,-5.35421 c 10.93068,-13.11471 15.61701,-18.91403 16.27169,-20.13622 0.56805,-1.06046 0.57793,-1.61983 0.0511,-2.89178 -1.34343,-3.24332 0.13841,-3.16658 -34.07951,-1.76474 -17.15428,0.70279 -33.86668,1.43139 -37.13862,1.61911 l -5.94902,0.34132 0,-2.10524 0,-2.10525 3.8338,-0.33117 c 6.72734,-0.58111 79.83202,-4.61335 80.03109,-4.41428 0.10521,0.10522 0.46562,2.08034 0.80095,4.38923 0.33531,2.30888 0.8456,4.49542 1.13396,4.85897 0.41398,0.5219 13.25308,0.661 61.00732,0.661 l 60.483,0 0,15.29746 c 0,13.20173 0.11378,15.41133 0.83097,16.12846 0.74459,0.74461 6.46009,0.83097 54.99534,0.83097 l 54.16437,0 0,8.09067 c 0,5.58765 0.19624,8.28696 0.63457,8.72521 0.40723,0.40721 2.49124,0.63457 5.81681,0.63457 2.85025,0 5.18226,0.11586 5.18226,0.25751 0,0.14174 0.9316,5.07932 2.07026,10.97262 2.00464,10.37557 2.08073,11.18015 2.40066,25.38935 l 0.33038,14.67426 -25.13911,0 c -13.82652,0 -25.13451,-0.1785 -25.1289,-0.3966 z M 505.20816,311.35399 c 0,-0.11044 1.05929,-1.59766 2.35402,-3.30501 1.29471,-1.70732 3.1389,-4.14756 4.09821,-5.42273 0.9593,-1.27519 2.35638,-3.05988 3.10464,-3.96603 4.22418,-5.11548 10.14717,-13.25583 10.60897,-14.58056 0.46409,-1.33124 0.17494,-2.81442 -0.751,-3.8514 -0.0624,-0.0699 -30.9051,-0.24844 -68.53913,-0.3966 l -68.42558,-0.26938 6.29141,-7.6352 c 3.46026,-4.19933 7.90184,-9.55345 9.87018,-11.89801 4.70562,-5.60509 5.40568,-7.11359 4.4086,-9.4999 -0.41592,-0.99543 -1.28549,-1.96915 -1.94563,-2.17869 -0.65648,-0.20834 -4.66405,-0.22669 -8.90571,-0.0407 -4.24163,0.18601 -19.25317,0.80248 -33.35893,1.37008 -14.10578,0.56757 -27.25312,1.14402 -29.21628,1.28101 l -3.56942,0.24907 0,-2.06048 c 0,-1.91807 0.11878,-2.07869 1.71862,-2.32394 0.94522,-0.14488 10.40416,-0.74248 21.01985,-1.32796 10.61568,-0.58549 28.64018,-1.58923 40.05442,-2.23054 11.41423,-0.64129 20.89244,-1.02673 21.06266,-0.85651 0.17014,0.17014 0.59153,2.13349 0.93621,4.3628 0.44149,2.85527 0.90086,4.2067 1.55426,4.57237 0.58211,0.32577 23.27707,0.63722 60.93584,0.83627 l 60.00828,0.31719 0,15.20695 c 0,8.36383 0.14446,15.58336 0.32099,16.04341 0.2846,0.74172 2.52011,0.83646 19.73871,0.83646 l 19.41781,0 6.56908,13.03859 c 3.61305,7.17125 6.64847,13.23924 6.74539,13.48445 0.0971,0.24521 -19.23731,0.44583 -42.9651,0.44583 -23.72774,2e-5 -43.14137,-0.0904 -43.14137,-0.20083 z M 442.8096,216.61071 c 0,-0.15866 4.64024,-5.88002 10.31162,-12.71393 9.06863,-10.92749 10.31163,-12.64857 10.31163,-14.27744 0,-1.27634 -0.41585,-2.26802 -1.33763,-3.1898 -1.32567,-1.32567 -1.39546,-1.33475 -7.79982,-1.01363 -3.55421,0.17828 -17.8843,0.78423 -31.84466,1.34673 -13.96035,0.56248 -27.78708,1.16897 -30.72607,1.34774 l -5.34361,0.32499 -0.32471,-2.0009 c -0.17849,-1.1005 -0.2446,-2.08098 -0.14676,-2.17889 0.1572,-0.1572 80.31063,-4.87566 83.13528,-4.89393 0.98576,-0.006 1.19438,0.47502 1.77277,4.09099 0.36052,2.25401 0.89825,4.39566 1.1949,4.75921 0.40146,0.49197 3.4775,0.661 12.0289,0.661 l 11.48954,0 15.37437,13.46987 c 8.45591,7.40844 15.52552,13.7144 15.71023,14.01324 0.2288,0.37022 -13.07129,0.54336 -41.73513,0.54336 -23.139,0 -42.07091,-0.12985 -42.07091,-0.28861 z"
       style="fill:#0051a2" />
  </g>
</svg>
