<?xml version="1.0" encoding="UTF-8" standalone="no"?>
<!-- Created with Inkscape (http://www.inkscape.org/) -->

<svg
   xmlns:dc="http://purl.org/dc/elements/1.1/"
   xmlns:cc="http://creativecommons.org/ns#"
   xmlns:rdf="http://www.w3.org/1999/02/22-rdf-syntax-ns#"
   xmlns:svg="http://www.w3.org/2000/svg"
   xmlns="http://www.w3.org/2000/svg"
   xmlns:sodipodi="http://sodipodi.sourceforge.net/DTD/sodipodi-0.dtd"
   xmlns:inkscape="http://www.inkscape.org/namespaces/inkscape"
   width="114.91066mm"
   height="43.966694mm"
   viewBox="0 0 407.16376 155.7875"
   id="svg2"
   version="1.1"
   inkscape:version="0.91 r13725"
   sodipodi:docname="gccajamar.svg">
  <defs
     id="defs4">
    <clipPath
       id="clipPath3372"
       clipPathUnits="userSpaceOnUse">
      <path
         inkscape:connector-curvature="0"
         id="path3374"
         d="m 0,595.276 841.89,0 L 841.89,0 0,0 0,595.276 Z" />
    </clipPath>
  </defs>
  <sodipodi:namedview
     id="base"
     pagecolor="#ffffff"
     bordercolor="#666666"
     borderopacity="1.0"
     inkscape:pageopacity="0.0"
     inkscape:pageshadow="2"
     inkscape:zoom="0.98994949"
     inkscape:cx="152.70512"
     inkscape:cy="82.486973"
     inkscape:document-units="px"
     inkscape:current-layer="layer1"
     showgrid="false"
     fit-margin-top="0"
     fit-margin-left="0"
     fit-margin-right="0"
     fit-margin-bottom="0"
     inkscape:window-width="1280"
     inkscape:window-height="962"
     inkscape:window-x="-8"
     inkscape:window-y="-8"
     inkscape:window-maximized="1" />
  <metadata
     id="metadata7">
    <rdf:RDF>
      <cc:Work
         rdf:about="">
        <dc:format>image/svg+xml</dc:format>
        <dc:type
           rdf:resource="http://purl.org/dc/dcmitype/StillImage" />
        <dc:title></dc:title>
      </cc:Work>
    </rdf:RDF>
  </metadata>
  <g
     inkscape:label="Capa 1"
     inkscape:groupmode="layer"
     id="layer1"
     transform="translate(-146.24786,-403.15542)">
    <g
       transform="matrix(1.25,0,0,-1.25,-389.03839,931.49542)"
       inkscape:label="marca Grupo Corporativo Cajamar RGB CS4"
       id="g3344">
      <g
         id="g3368">
        <g
           clip-path="url(#clipPath3372)"
           id="g3370">
          <path
             inkscape:connector-curvature="0"
             id="path4288"
             style="fill:#008a9b;fill-opacity:1;fill-rule:nonzero;stroke:none"
             d="m 753.96,298.042 -325.731,0 0,124.63 325.731,0 0,-124.63 z" />
          <g
             transform="translate(513.4336,383.8408)"
             id="g4290">
            <path
               inkscape:connector-curvature="0"
               id="path4292"
               style="fill:#ffffff;fill-opacity:1;fill-rule:nonzero;stroke:none"
               d="m 0,0 c 0,4.937 -4.002,8.939 -8.939,8.939 -4.939,0 -8.941,-4.002 -8.941,-8.939 0,-4.937 4.002,-8.939 8.941,-8.939 C -4.002,-8.939 0,-4.937 0,0" />
          </g>
          <g
             transform="translate(490.915,382.3599)"
             id="g4294">
            <path
               inkscape:connector-curvature="0"
               id="path4296"
               style="fill:#a0ced4;fill-opacity:1;fill-rule:nonzero;stroke:none"
               d="m 0,0 c 0,4.088 -3.316,7.403 -7.407,7.403 -4.093,0 -7.409,-3.315 -7.409,-7.403 0,-4.092 3.316,-7.409 7.409,-7.409 C -3.316,-7.409 0,-4.092 0,0" />
          </g>
          <g
             transform="translate(532.7275,382.3599)"
             id="g4298">
            <path
               inkscape:connector-curvature="0"
               id="path4300"
               style="fill:#a0ced4;fill-opacity:1;fill-rule:nonzero;stroke:none"
               d="m 0,0 c 0,4.088 -3.315,7.403 -7.407,7.403 -4.091,0 -7.406,-3.315 -7.406,-7.403 0,-4.092 3.315,-7.409 7.406,-7.409 C -3.315,-7.409 0,-4.092 0,0" />
          </g>
          <g
             transform="translate(485.0352,367.4277)"
             id="g4302">
            <path
               inkscape:connector-curvature="0"
               id="path4304"
               style="fill:#a0ced4;fill-opacity:1;fill-rule:nonzero;stroke:none"
               d="m 0,0 c 0,2.47 2.004,4.475 4.474,4.475 l -14.921,0 c -2.474,0 -4.477,-2.005 -4.477,-4.475 l 0,-24.956 c 4.43,-3.678 9.459,-6.661 14.924,-8.777 L 0,0 Z" />
          </g>
          <g
             transform="translate(538.75,367.4277)"
             id="g4306">
            <path
               inkscape:connector-curvature="0"
               id="path4308"
               style="fill:#a0ced4;fill-opacity:1;fill-rule:nonzero;stroke:none"
               d="m 0,0 c 0,2.47 -2.005,4.475 -4.478,4.475 l -14.918,0 c 2.468,0 4.473,-2.005 4.473,-4.475 l 0,-33.729 c 5.464,2.112 10.495,5.095 14.923,8.773 L 0,0 Z" />
          </g>
          <g
             transform="translate(519.4014,332.2017)"
             id="g4310">
            <path
               inkscape:connector-curvature="0"
               id="path4312"
               style="fill:#ffffff;fill-opacity:1;fill-rule:nonzero;stroke:none"
               d="m 0,0 0,35.226 c 0,2.47 -2.003,4.475 -4.474,4.475 l -0.076,0 -5.968,0 c -2.445,-0.031 -4.415,-2.022 -4.415,-4.475 0,2.47 -2.003,4.475 -4.477,4.475 l -5.966,0 c -2.477,0 -4.478,-2.005 -4.478,-4.475 l 0,-35.253 c 4.726,-1.359 9.719,-2.088 14.882,-2.088 5.197,0 10.219,0.739 14.972,2.115" />
          </g>
          <g
             transform="translate(565.75,377.958)"
             id="g4314">
            <path
               inkscape:connector-curvature="0"
               id="path4316"
               style="fill:#ffffff;fill-opacity:1;fill-rule:nonzero;stroke:none"
               d="m 0,0 0,-6.821 c -1.96,-0.575 -3.598,-0.829 -5.07,-0.829 -5.369,0 -9.796,3.226 -9.796,8.503 0,4.885 4.034,8.18 9.495,8.18 1.06,0 2.973,-0.299 4.126,-0.806 L -2.443,5.369 c -0.786,0.231 -2.213,0.299 -2.675,0.299 -2.303,0 -4.677,-1.497 -4.677,-4.999 0,-3.434 2.557,-4.955 4.218,-4.955 0.161,0 0.414,0.023 0.715,0.115 L -4.862,0 0,0 Z" />
          </g>
          <g
             transform="translate(573.0234,379.7324)"
             id="g4318">
            <path
               inkscape:connector-curvature="0"
               id="path4320"
               style="fill:#ffffff;fill-opacity:1;fill-rule:nonzero;stroke:none"
               d="m 0,0 1.383,0 c 1.29,0 1.935,1.106 1.935,1.981 0,1.591 -0.991,1.983 -2.028,1.983 L 0,3.964 0,0 Z m -4.862,6.982 7.189,0 c 3.804,0 5.855,-1.659 5.855,-4.309 0,-2.466 -1.222,-3.917 -2.721,-4.654 l 3.572,-6.914 -5.208,-0.53 -2.556,6.383 -1.269,0 0,-6.106 -4.862,0 0,16.13 z" />
          </g>
          <g
             transform="translate(587.9287,386.7144)"
             id="g4322">
            <path
               inkscape:connector-curvature="0"
               id="path4324"
               style="fill:#ffffff;fill-opacity:1;fill-rule:nonzero;stroke:none"
               d="m 0,0 0,-8.433 c 0,-2.903 0.436,-4.609 2.485,-4.609 1.616,0 2.538,1.613 2.538,4.678 l 0,8.364 4.193,0 0,-9.747 c 0,-4.816 -3.272,-6.66 -6.958,-6.66 -4.126,0 -7.12,1.729 -7.12,6.545 L -4.862,0 0,0 Z" />
          </g>
          <g
             transform="translate(605.665,379.272)"
             id="g4326">
            <path
               inkscape:connector-curvature="0"
               id="path4328"
               style="fill:#ffffff;fill-opacity:1;fill-rule:nonzero;stroke:none"
               d="m 0,0 c 0.62,0.115 2.211,0.737 2.211,2.512 0,1.451 -1.174,1.912 -2.327,1.912 l -1.314,0 0,-13.112 -4.862,0 0,16.13 6.683,0 c 4.009,0 6.474,-1.52 6.474,-4.654 0,-2.719 -2.442,-5.691 -6.659,-5.691 l -0.874,0 0,2.833 L 0,0 Z" />
          </g>
          <g
             transform="translate(624.4385,378.834)"
             id="g4330">
            <path
               inkscape:connector-curvature="0"
               id="path4332"
               style="fill:#ffffff;fill-opacity:1;fill-rule:nonzero;stroke:none"
               d="m 0,0 c 0,2.857 -0.876,4.792 -2.949,4.792 -2.074,0 -2.95,-1.935 -2.95,-4.792 0,-3.042 0.784,-5.162 2.95,-5.162 C -0.783,-5.162 0,-3.042 0,0 m -10.97,0 c 0,4.517 3.39,8.157 8.021,8.157 4.632,0 8.019,-3.64 8.019,-8.157 0,-4.816 -3.065,-8.526 -8.019,-8.526 -4.953,0 -8.021,3.71 -8.021,8.526" />
          </g>
          <g
             transform="translate(564.5498,352.2212)"
             id="g4334">
            <path
               inkscape:connector-curvature="0"
               id="path4336"
               style="fill:#ffffff;fill-opacity:1;fill-rule:nonzero;stroke:none"
               d="m 0,0 c -0.897,-0.346 -2.419,-0.715 -3.894,-0.715 -5.369,0 -9.772,3.227 -9.772,8.503 0,4.886 4.011,8.181 9.495,8.181 1.061,0 2.973,-0.299 4.126,-0.807 l -1.198,-2.857 c -0.785,0.231 -2.213,0.299 -2.675,0.299 -2.327,0 -4.677,-1.497 -4.677,-5 0,-3.433 2.374,-4.954 4.909,-4.954 1.037,0 2.003,0.184 2.742,0.368 L 0,0 Z" />
          </g>
          <g
             transform="translate(576.8252,360.0332)"
             id="g4338">
            <path
               inkscape:connector-curvature="0"
               id="path4340"
               style="fill:#ffffff;fill-opacity:1;fill-rule:nonzero;stroke:none"
               d="m 0,0 c 0,2.857 -0.874,4.792 -2.949,4.792 -2.074,0 -2.95,-1.935 -2.95,-4.792 0,-3.042 0.786,-5.162 2.95,-5.162 C -0.781,-5.162 0,-3.042 0,0 m -10.968,0 c 0,4.517 3.388,8.157 8.019,8.157 4.634,0 8.019,-3.64 8.019,-8.157 0,-4.816 -3.063,-8.527 -8.019,-8.527 -4.953,0 -8.019,3.711 -8.019,8.527" />
          </g>
          <g
             transform="translate(594.3555,360.0332)"
             id="g4342">
            <path
               inkscape:connector-curvature="0"
               id="path4344"
               style="fill:#ffffff;fill-opacity:1;fill-rule:nonzero;stroke:none"
               d="m 0,0 c 0,2.857 -0.873,4.792 -2.949,4.792 -2.074,0 -2.949,-1.935 -2.949,-4.792 0,-3.042 0.783,-5.162 2.949,-5.162 C -0.783,-5.162 0,-3.042 0,0 m -10.967,0 c 0,4.517 3.385,8.157 8.018,8.157 4.633,0 8.017,-3.64 8.017,-8.157 0,-4.816 -3.062,-8.527 -8.017,-8.527 -4.955,0 -8.018,3.711 -8.018,8.527" />
          </g>
          <g
             transform="translate(607.6445,360.4707)"
             id="g4346">
            <path
               inkscape:connector-curvature="0"
               id="path4348"
               style="fill:#ffffff;fill-opacity:1;fill-rule:nonzero;stroke:none"
               d="m 0,0 c 0.625,0.115 2.213,0.738 2.213,2.512 0,1.451 -1.176,1.913 -2.327,1.913 l -1.314,0 0,-13.113 -4.862,0 0,16.131 6.683,0 c 4.009,0 6.476,-1.521 6.476,-4.655 0,-2.719 -2.443,-5.691 -6.661,-5.691 l -0.876,0 0,2.834 L 0,0 Z" />
          </g>
          <g
             transform="translate(625.6836,364.8955)"
             id="g4350">
            <path
               inkscape:connector-curvature="0"
               id="path4352"
               style="fill:#ffffff;fill-opacity:1;fill-rule:nonzero;stroke:none"
               d="m 0,0 -4.933,0 0,-3.181 4.817,0 0,-3.018 -4.817,0 0,-3.895 5.923,0 0,-3.018 -10.785,0 0,16.13 L 0,3.018 0,0 Z" />
          </g>
          <g
             transform="translate(633.168,360.9316)"
             id="g4354">
            <path
               inkscape:connector-curvature="0"
               id="path4356"
               style="fill:#ffffff;fill-opacity:1;fill-rule:nonzero;stroke:none"
               d="m 0,0 1.382,0 c 1.29,0 1.936,1.106 1.936,1.981 0,1.591 -0.992,1.983 -2.028,1.983 L 0,3.964 0,0 Z m -4.863,6.982 7.189,0 c 3.803,0 5.853,-1.659 5.853,-4.31 0,-2.465 -1.22,-3.916 -2.718,-4.653 l 3.572,-6.914 -5.208,-0.53 -2.559,6.383 -1.266,0 0,-6.106 -4.863,0 0,16.13 z" />
          </g>
          <g
             transform="translate(651.6211,358.189)"
             id="g4358">
            <path
               inkscape:connector-curvature="0"
               id="path4360"
               style="fill:#ffffff;fill-opacity:1;fill-rule:nonzero;stroke:none"
               d="m 0,0 c -0.53,1.913 -0.992,3.458 -1.567,5.762 l -0.047,0 C -2.237,3.458 -2.789,1.913 -3.39,0 L 0,0 Z m 1.082,9.725 6.129,-16.131 -5.161,0 -1.269,3.848 -5,0 -1.543,-3.848 -3.801,0 6.566,16.131 4.079,0 z" />
          </g>
          <g
             transform="translate(662.166,351.7832)"
             id="g4362">
            <path
               inkscape:connector-curvature="0"
               id="path4364"
               style="fill:#ffffff;fill-opacity:1;fill-rule:nonzero;stroke:none"
               d="m 0,0 0,13.112 -4.654,0 0,3.018 14.173,0 0,-3.018 -4.657,0 L 4.862,0 0,0 Z" />
          </g>
          <path
             inkscape:connector-curvature="0"
             id="path4366"
             style="fill:#ffffff;fill-opacity:1;fill-rule:nonzero;stroke:none"
             d="m 672.854,367.914 4.861,0 0,-16.13 -4.861,0 0,16.13 z" />
          <g
             transform="translate(684.5117,351.7832)"
             id="g4368">
            <path
               inkscape:connector-curvature="0"
               id="path4370"
               style="fill:#ffffff;fill-opacity:1;fill-rule:nonzero;stroke:none"
               d="m 0,0 -5.807,15.899 5.139,0.462 C 0.507,12.558 1.683,8.734 2.834,4.24 l 0.047,0 c 1.245,4.494 2.512,8.318 3.778,12.121 L 10.783,15.899 4.562,0 0,0 Z" />
          </g>
          <g
             transform="translate(706.8809,360.0332)"
             id="g4372">
            <path
               inkscape:connector-curvature="0"
               id="path4374"
               style="fill:#ffffff;fill-opacity:1;fill-rule:nonzero;stroke:none"
               d="m 0,0 c 0,2.857 -0.876,4.792 -2.949,4.792 -2.074,0 -2.95,-1.935 -2.95,-4.792 0,-3.042 0.782,-5.162 2.95,-5.162 C -0.785,-5.162 0,-3.042 0,0 m -10.97,0 c 0,4.517 3.388,8.157 8.021,8.157 4.63,0 8.017,-3.64 8.017,-8.157 0,-4.816 -3.065,-8.527 -8.017,-8.527 -4.955,0 -8.021,3.711 -8.021,8.527" />
          </g>
          <g
             transform="translate(564.5498,333.4204)"
             id="g4376">
            <path
               inkscape:connector-curvature="0"
               id="path4378"
               style="fill:#ffffff;fill-opacity:1;fill-rule:nonzero;stroke:none"
               d="m 0,0 c -0.897,-0.346 -2.419,-0.715 -3.894,-0.715 -5.369,0 -9.772,3.226 -9.772,8.503 0,4.886 4.011,8.181 9.495,8.181 1.061,0 2.973,-0.3 4.126,-0.807 l -1.198,-2.857 c -0.785,0.231 -2.213,0.299 -2.675,0.299 -2.327,0 -4.677,-1.497 -4.677,-5 0,-3.433 2.374,-4.954 4.909,-4.954 1.037,0 2.003,0.184 2.742,0.368 L 0,0 Z" />
          </g>
          <g
             transform="translate(574.6377,339.3882)"
             id="g4380">
            <path
               inkscape:connector-curvature="0"
               id="path4382"
               style="fill:#ffffff;fill-opacity:1;fill-rule:nonzero;stroke:none"
               d="m 0,0 c -0.53,1.913 -0.989,3.457 -1.567,5.762 l -0.047,0 C -2.234,3.457 -2.788,1.913 -3.388,0 L 0,0 Z m 1.084,9.725 6.129,-16.131 -5.163,0 -1.267,3.848 -5.001,0 -1.544,-3.848 -3.801,0 6.566,16.131 4.081,0 z" />
          </g>
          <g
             transform="translate(587.8574,349.1128)"
             id="g4384">
            <path
               inkscape:connector-curvature="0"
               id="path4386"
               style="fill:#ffffff;fill-opacity:1;fill-rule:nonzero;stroke:none"
               d="m 0,0 0,-13.688 c 0,-3.986 -2.234,-6.821 -6.405,-6.821 l 0,2.789 c 0.553,0.253 0.828,0.414 1.037,0.783 0.274,0.483 0.506,1.429 0.506,2.904 L -4.862,0 0,0 Z" />
          </g>
          <g
             transform="translate(598.5703,339.3882)"
             id="g4388">
            <path
               inkscape:connector-curvature="0"
               id="path4390"
               style="fill:#ffffff;fill-opacity:1;fill-rule:nonzero;stroke:none"
               d="m 0,0 c -0.53,1.913 -0.992,3.457 -1.567,5.762 l -0.045,0 C -2.237,3.457 -2.789,1.913 -3.388,0 L 0,0 Z m 1.082,9.725 6.131,-16.131 -5.161,0 -1.269,3.848 -5,0 -1.543,-3.848 -3.803,0 6.568,16.131 4.077,0 z" />
          </g>
          <g
             transform="translate(626.4922,332.9824)"
             id="g4392">
            <path
               inkscape:connector-curvature="0"
               id="path4394"
               style="fill:#ffffff;fill-opacity:1;fill-rule:nonzero;stroke:none"
               d="m 0,0 -4.861,0 0,11.292 -0.048,0 C -6.152,7.074 -7.442,3.526 -8.734,0 l -3.064,0 c -1.313,3.526 -2.628,7.074 -3.893,11.292 l -0.046,0 0,-11.292 -3.825,0 0,16.13 6.59,0 c 1.106,-3.088 2.211,-6.152 3.295,-9.932 l 0.045,0 c 1.037,3.78 2.119,6.844 3.18,9.932 L 0,16.13 0,0 Z" />
          </g>
          <g
             transform="translate(637.1992,339.3882)"
             id="g4396">
            <path
               inkscape:connector-curvature="0"
               id="path4398"
               style="fill:#ffffff;fill-opacity:1;fill-rule:nonzero;stroke:none"
               d="m 0,0 c -0.53,1.913 -0.99,3.457 -1.567,5.762 l -0.047,0 C -2.234,3.457 -2.789,1.913 -3.388,0 L 0,0 Z m 1.084,9.725 6.129,-16.131 -5.163,0 -1.267,3.848 -5.002,0 -1.543,-3.848 -3.801,0 6.566,16.131 4.081,0 z" />
          </g>
          <g
             transform="translate(650.4189,342.1304)"
             id="g4400">
            <path
               inkscape:connector-curvature="0"
               id="path4402"
               style="fill:#ffffff;fill-opacity:1;fill-rule:nonzero;stroke:none"
               d="m 0,0 1.383,0 c 1.292,0 1.936,1.106 1.936,1.981 0,1.591 -0.99,1.983 -2.027,1.983 L 0,3.964 0,0 Z m -4.862,6.982 7.191,0 c 3.802,0 5.852,-1.659 5.852,-4.309 0,-2.466 -1.221,-3.917 -2.718,-4.654 l 3.57,-6.914 -5.208,-0.53 -2.556,6.383 -1.269,0 0,-6.106 -4.862,0 0,16.13 z" />
          </g>
        </g>
      </g>
    </g>
  </g>
</svg>
