<?xml version="1.0" encoding="UTF-8" standalone="no"?><!DOCTYPE svg PUBLIC "-//W3C//DTD SVG 1.1//EN" "http://www.w3.org/Graphics/SVG/1.1/DTD/svg11.dtd"><svg width="100%" height="100%" viewBox="0 0 113 45" version="1.1" xmlns="http://www.w3.org/2000/svg" xmlns:xlink="http://www.w3.org/1999/xlink" xml:space="preserve" style="fill-rule:evenodd;clip-rule:evenodd;stroke-linejoin:round;stroke-miterlimit:1.41421;"><path d="M12.006,36.878l0,-5.138c0,-0.325 0.234,-0.559 0.64,-0.559c0.317,0 0.551,0.234 0.551,0.559l0,1.972l2.949,0l0,-1.972c0,-0.325 0.289,-0.559 0.616,-0.559c0.315,0 0.561,0.234 0.561,0.559l0,5.138c0,0.316 -0.246,0.559 -0.561,0.559c-0.327,0 -0.616,-0.243 -0.616,-0.559l0,-1.981l-2.949,0l0,1.981c0,0.316 -0.234,0.559 -0.551,0.559c-0.406,0 -0.64,-0.243 -0.64,-0.559" style="fill:#f05a28;fill-rule:nonzero;"/><path d="M22.344,35.14l-1.022,-2.232l-1.113,2.232l2.135,0ZM18.454,37.438c-0.288,-0.163 -0.47,-0.49 -0.288,-0.868l2.595,-5.074c0.243,-0.479 0.896,-0.496 1.121,0l2.552,5.074c0.368,0.705 -0.727,1.264 -1.05,0.559l-0.399,-0.793l-3.336,0l-0.388,0.793c-0.147,0.309 -0.479,0.371 -0.807,0.309" style="fill:#f05a28;fill-rule:nonzero;"/><path d="M25.033,34.263c0,-1.745 1.092,-3.246 3.174,-3.246c0.785,0 1.411,0.237 2.07,0.805c0.244,0.229 0.271,0.623 0.026,0.878c-0.242,0.218 -0.614,0.19 -0.83,-0.028c-0.371,-0.388 -0.751,-0.496 -1.266,-0.496c-1.392,0 -2.064,0.985 -2.064,2.087c0,1.123 0.663,2.152 2.064,2.152c0.515,0 0.995,-0.208 1.411,-0.577c0.278,-0.218 0.668,-0.109 0.831,0.108c0.143,0.199 0.216,0.533 -0.1,0.85c-0.634,0.587 -1.392,0.704 -2.142,0.704c-2.19,0 -3.174,-1.491 -3.174,-3.237" style="fill:#f05a28;fill-rule:nonzero;"/><path d="M33.679,34.67l-0.858,0.95l0,1.266c0,0.75 -1.194,0.761 -1.194,0l0,-5.163c0,-0.768 1.194,-0.795 1.194,0l0,2.297l2.613,-2.696c0.317,-0.297 0.633,-0.225 0.859,0c0.253,0.245 0.253,0.561 0,0.806c-0.535,0.633 -1.156,1.194 -1.735,1.827l2.114,2.557c0.544,0.752 -0.614,1.293 -0.975,0.715l-2.018,-2.559Z" style="fill:#f05a28;fill-rule:nonzero;"/><path d="M37.698,31.723c0,-0.297 0.255,-0.551 0.57,-0.551c0.289,0 0.534,0.254 0.534,0.551l0,4.531l2.458,0c0.885,0 0.902,1.183 0,1.183l-2.992,0c-0.315,0 -0.57,-0.226 -0.57,-0.55l0,-5.164Z" style="fill:#f05a28;fill-rule:nonzero;"/><path d="M46.624,35.14l-1.021,-2.232l-1.112,2.232l2.133,0ZM42.736,37.438c-0.288,-0.163 -0.471,-0.49 -0.288,-0.868l2.595,-5.074c0.242,-0.479 0.894,-0.496 1.122,0l2.547,5.074c0.372,0.705 -0.721,1.264 -1.047,0.559l-0.399,-0.793l-3.336,0l-0.386,0.793c-0.147,0.309 -0.482,0.371 -0.808,0.309" style="fill:#f05a28;fill-rule:nonzero;"/><path d="M50.716,36.336l2.205,0c1.05,0 1.05,-1.603 0,-1.603l-2.205,0l0,1.603ZM52.624,32.284l-1.908,0l0,1.348l1.908,0c0.387,0 0.633,-0.247 0.633,-0.724c0,-0.299 -0.246,-0.624 -0.633,-0.624M50.082,37.437c-0.326,0 -0.552,-0.243 -0.552,-0.559l0,-5.138c0,-0.325 0.226,-0.559 0.552,-0.559l2.542,0c1.185,0 1.825,0.804 1.825,1.727c0,0.406 -0.118,0.804 -0.495,1.138c0.713,0.28 1.03,0.832 1.03,1.503c0,1.039 -0.707,1.888 -2.063,1.888l-2.839,0Z" style="fill:#f05a28;fill-rule:nonzero;"/><path d="M56.442,38.514c-0.76,0 -0.751,-1.096 0,-1.096l3.355,0c0.724,0 0.687,1.096 0,1.096l-3.355,0Z" style="fill:#f05a28;fill-rule:nonzero;"/><path d="M65.152,35.14l-1.022,-2.232l-1.111,2.232l2.133,0ZM61.264,37.438c-0.291,-0.163 -0.469,-0.49 -0.291,-0.868l2.596,-5.074c0.245,-0.479 0.895,-0.496 1.122,0l2.55,5.074c0.37,0.705 -0.724,1.264 -1.048,0.559l-0.399,-0.793l-3.338,0l-0.387,0.793c-0.148,0.309 -0.479,0.371 -0.805,0.309" style="fill:#f05a28;fill-rule:nonzero;"/><path d="M68.067,31.723c0,-0.297 0.252,-0.551 0.568,-0.551c0.291,0 0.536,0.254 0.536,0.551l0,4.531l2.459,0c0.886,0 0.904,1.183 0,1.183l-2.995,0c-0.316,0 -0.568,-0.226 -0.568,-0.55l0,-5.164Z" style="fill:#f05a28;fill-rule:nonzero;"/><path d="M74.436,33.468l0,3.347c0,0.397 -0.327,0.622 -0.652,0.622c-0.289,0 -0.543,-0.225 -0.543,-0.622l0,-5.092c0,-0.469 0.398,-0.624 0.543,-0.624c0.262,0 0.416,0.155 0.569,0.326l1.991,2.684l2.06,-2.784c0.299,-0.37 1.032,-0.226 1.032,0.398l0,5.092c0,0.397 -0.255,0.622 -0.542,0.622c-0.327,0 -0.579,-0.225 -0.579,-0.622l0,-3.347l-1.5,1.899c-0.326,0.398 -0.734,0.398 -1.033,0l-1.346,-1.899Z" style="fill:#f05a28;fill-rule:nonzero;"/><path d="M81.248,37.437c-0.316,0 -0.561,-0.243 -0.561,-0.559l0,-5.138c0,-0.325 0.245,-0.559 0.561,-0.559l3.247,0c0.83,0 0.812,1.175 0,1.175l-2.605,0l0,1.356l2.279,0c0.805,0 0.805,1.185 0,1.185l-2.279,0l0,1.357l2.759,0c0.821,0 0.884,1.183 0,1.183l-3.401,0Z" style="fill:#f05a28;fill-rule:nonzero;"/><path d="M87.464,34.172l1.743,0c1.177,0 1.249,-1.897 0,-1.897l-1.743,0l0,1.897ZM87.464,36.85c0,0.786 -1.204,0.814 -1.204,0.019l0,-5.137c0,-0.317 0.244,-0.551 0.541,-0.551l2.406,0c2.299,0 2.767,3.074 0.851,3.842l1.203,1.465c0.469,0.699 -0.471,1.365 -1.014,0.68l-1.365,-1.956l-1.418,0l0,1.638Z" style="fill:#f05a28;fill-rule:nonzero;"/><path d="M92.439,31.723c0,-0.741 1.194,-0.767 1.194,0l0,5.164c0,0.75 -1.194,0.768 -1.194,0l0,-5.164ZM93.199,29.192c0.587,-0.435 1.22,0.416 0.669,0.823l-0.968,0.641c-0.571,0.352 -1.159,-0.433 -0.571,-0.823l0.87,-0.641Z" style="fill:#f05a28;fill-rule:nonzero;"/><path d="M98.734,35.14l-1.022,-2.232l-1.111,2.232l2.133,0ZM94.845,37.438c-0.29,-0.163 -0.469,-0.49 -0.29,-0.868l2.597,-5.074c0.242,-0.479 0.894,-0.496 1.121,0l2.549,5.074c0.37,0.705 -0.724,1.264 -1.049,0.559l-0.397,-0.793l-3.338,0l-0.387,0.793c-0.146,0.309 -0.481,0.371 -0.806,0.309" style="fill:#f05a28;fill-rule:nonzero;"/><path d="M38.259,11.333c1.339,0 2.422,-1.085 2.422,-2.425c0,-1.338 -1.083,-2.422 -2.422,-2.422c-1.338,0 -2.422,1.084 -2.422,2.422c0,1.34 1.084,2.425 2.422,2.425" style="fill:#5a4a42;fill-rule:nonzero;"/><path d="M50.376,17.39c1.337,0 2.422,-1.083 2.422,-2.421c0,-1.339 -1.085,-2.424 -2.422,-2.424c-1.338,0 -2.423,1.085 -2.423,2.424c0,1.338 1.085,2.421 2.423,2.421" style="fill:#5a4a42;fill-rule:nonzero;"/><path d="M44.318,17.39c1.337,0 2.422,-1.083 2.422,-2.421c0,-1.339 -1.085,-2.424 -2.422,-2.424c-1.338,0 -2.423,1.085 -2.423,2.424c0,1.338 1.085,2.421 2.423,2.421" style="fill:#5a4a42;fill-rule:nonzero;"/><path d="M38.259,17.39c1.338,0 2.422,-1.083 2.422,-2.421c0,-1.339 -1.084,-2.424 -2.422,-2.424c-1.338,0 -2.423,1.085 -2.423,2.424c0,1.338 1.085,2.421 2.423,2.421" style="fill:#5a4a42;fill-rule:nonzero;"/><path d="M38.259,23.451c1.338,0 2.423,-1.085 2.423,-2.425c0,-1.337 -1.085,-2.422 -2.423,-2.422c-1.338,0 -2.424,1.085 -2.424,2.422c0,1.34 1.086,2.425 2.424,2.425" style="fill:#5a4a42;fill-rule:nonzero;"/><path d="M50.376,23.451c1.337,0 2.422,-1.085 2.422,-2.425c0,-1.337 -1.085,-2.422 -2.422,-2.422c-1.338,0 -2.423,1.085 -2.423,2.422c0,1.34 1.085,2.425 2.423,2.425" style="fill:#5a4a42;fill-rule:nonzero;"/><path d="M62.604,11.333c1.338,0 2.421,-1.085 2.421,-2.425c0,-1.338 -1.083,-2.422 -2.421,-2.422c-1.339,0 -2.423,1.084 -2.423,2.422c0,1.34 1.084,2.425 2.423,2.425" style="fill:#5a4a42;fill-rule:nonzero;"/><path d="M62.604,17.39c1.338,0 2.422,-1.083 2.422,-2.421c0,-1.339 -1.084,-2.424 -2.422,-2.424c-1.338,0 -2.423,1.085 -2.423,2.424c0,1.338 1.085,2.421 2.423,2.421" style="fill:#5a4a42;fill-rule:nonzero;"/><path d="M62.604,23.451c1.338,0 2.421,-1.085 2.421,-2.425c0,-1.337 -1.083,-2.422 -2.421,-2.422c-1.339,0 -2.423,1.085 -2.423,2.422c0,1.34 1.084,2.425 2.423,2.425" style="fill:#5a4a42;fill-rule:nonzero;"/><path d="M68.662,23.451c1.337,0 2.422,-1.085 2.422,-2.425c0,-1.337 -1.085,-2.422 -2.422,-2.422c-1.338,0 -2.423,1.085 -2.423,2.422c0,1.34 1.085,2.425 2.423,2.425" style="fill:#5a4a42;fill-rule:nonzero;"/><path d="M86.572,17.39c1.337,0 2.422,-1.083 2.422,-2.421c0,-1.339 -1.085,-2.424 -2.422,-2.424c-1.338,0 -2.423,1.085 -2.423,2.424c0,1.338 1.085,2.421 2.423,2.421" style="fill:#5a4a42;fill-rule:nonzero;"/><path d="M92.412,17.39c1.337,0 2.421,-1.083 2.421,-2.421c0,-1.339 -1.084,-2.424 -2.421,-2.424c-1.338,0 -2.424,1.085 -2.424,2.424c0,1.338 1.086,2.421 2.424,2.421" style="fill:#5a4a42;fill-rule:nonzero;"/><path d="M74.456,23.451c1.337,0 2.422,-1.085 2.422,-2.425c0,-1.337 -1.085,-2.422 -2.422,-2.422c-1.339,0 -2.424,1.085 -2.424,2.422c0,1.34 1.085,2.425 2.424,2.425" style="fill:#5a4a42;fill-rule:nonzero;"/><path d="M86.572,23.451c1.337,0 2.422,-1.085 2.422,-2.425c0,-1.337 -1.085,-2.422 -2.422,-2.422c-1.338,0 -2.423,1.085 -2.423,2.422c0,1.34 1.085,2.425 2.423,2.425" style="fill:#5a4a42;fill-rule:nonzero;"/><path d="M92.412,11.333c1.338,0 2.421,-1.085 2.421,-2.425c0,-1.338 -1.083,-2.422 -2.421,-2.422c-1.339,0 -2.423,1.084 -2.423,2.422c0,1.34 1.084,2.425 2.423,2.425" style="fill:#5a4a42;fill-rule:nonzero;"/><path d="M98.205,17.39c1.337,0 2.422,-1.083 2.422,-2.421c0,-1.339 -1.085,-2.424 -2.422,-2.424c-1.338,0 -2.423,1.085 -2.423,2.424c0,1.338 1.085,2.421 2.423,2.421" style="fill:#5a4a42;fill-rule:nonzero;"/><path d="M98.205,23.451c1.337,0 2.423,-1.085 2.423,-2.425c0,-1.337 -1.086,-2.422 -2.423,-2.422c-1.339,0 -2.424,1.085 -2.424,2.422c0,1.34 1.085,2.425 2.424,2.425" style="fill:#5a4a42;fill-rule:nonzero;"/><path d="M20.084,11.333c1.339,0 2.422,-1.085 2.422,-2.425c0,-1.338 -1.083,-2.422 -2.422,-2.422c-1.338,0 -2.422,1.084 -2.422,2.422c0,1.34 1.084,2.425 2.422,2.425" style="fill:#f05a28;fill-rule:nonzero;"/><path d="M26.143,17.39c1.337,0 2.422,-1.083 2.422,-2.421c0,-1.339 -1.085,-2.424 -2.422,-2.424c-1.338,0 -2.423,1.085 -2.423,2.424c0,1.338 1.085,2.421 2.423,2.421" style="fill:#f05a28;fill-rule:nonzero;"/><path d="M14.026,23.451c1.338,0 2.423,-1.085 2.423,-2.425c0,-1.337 -1.085,-2.422 -2.423,-2.422c-1.338,0 -2.424,1.085 -2.424,2.422c0,1.34 1.086,2.425 2.424,2.425" style="fill:#f05a28;fill-rule:nonzero;"/><path d="M20.084,23.451c1.339,0 2.422,-1.085 2.422,-2.425c0,-1.337 -1.083,-2.422 -2.422,-2.422c-1.338,0 -2.422,1.085 -2.422,2.422c0,1.34 1.084,2.425 2.422,2.425" style="fill:#f05a28;fill-rule:nonzero;"/><path d="M26.143,23.451c1.337,0 2.422,-1.085 2.422,-2.425c0,-1.337 -1.085,-2.422 -2.422,-2.422c-1.338,0 -2.423,1.085 -2.423,2.422c0,1.34 1.085,2.425 2.423,2.425" style="fill:#f05a28;fill-rule:nonzero;"/></svg>