<?xml version="1.0" encoding="UTF-8" standalone="no"?>
<!-- Created with Inkscape (http://www.inkscape.org/) -->

<svg
   xmlns:dc="http://purl.org/dc/elements/1.1/"
   xmlns:cc="http://creativecommons.org/ns#"
   xmlns:rdf="http://www.w3.org/1999/02/22-rdf-syntax-ns#"
   xmlns:svg="http://www.w3.org/2000/svg"
   xmlns="http://www.w3.org/2000/svg"
   xmlns:sodipodi="http://sodipodi.sourceforge.net/DTD/sodipodi-0.dtd"
   xmlns:inkscape="http://www.inkscape.org/namespaces/inkscape"
   width="131.25259mm"
   height="118.06757mm"
   viewBox="0 0 465.06825 418.34964"
   id="svg2"
   version="1.1"
   inkscape:version="0.91 r13725"
   sodipodi:docname="logo.svg">
  <defs
     id="defs4">
    <clipPath
       id="clipPath4150"
       clipPathUnits="userSpaceOnUse">
      <path
         inkscape:connector-curvature="0"
         id="path4152"
         d="M 0,560 960,560 960,0 0,0 0,560 Z" />
    </clipPath>
  </defs>
  <sodipodi:namedview
     id="base"
     pagecolor="#ffffff"
     bordercolor="#666666"
     borderopacity="1.0"
     inkscape:pageopacity="0.0"
     inkscape:pageshadow="2"
     inkscape:zoom="0.49497475"
     inkscape:cx="-595.72132"
     inkscape:cy="-45.044719"
     inkscape:document-units="px"
     inkscape:current-layer="layer1"
     showgrid="false"
     inkscape:window-width="1920"
     inkscape:window-height="1017"
     inkscape:window-x="1912"
     inkscape:window-y="-8"
     inkscape:window-maximized="1"
     fit-margin-top="0"
     fit-margin-left="0"
     fit-margin-right="0"
     fit-margin-bottom="0" />
  <metadata
     id="metadata7">
    <rdf:RDF>
      <cc:Work
         rdf:about="">
        <dc:format>image/svg+xml</dc:format>
        <dc:type
           rdf:resource="http://purl.org/dc/dcmitype/StillImage" />
        <dc:title></dc:title>
      </cc:Work>
    </rdf:RDF>
  </metadata>
  <g
     inkscape:label="Layer 1"
     inkscape:groupmode="layer"
     id="layer1"
     transform="translate(-150.59512,-84.791383)">
    <g
       transform="matrix(1.25,0,0,-1.25,-216.87075,643.81915)"
       inkscape:label="logo"
       id="g4144"
       inkscape:export-xdpi="38.703995"
       inkscape:export-ydpi="38.703995">
      <g
         id="g4146">
        <g
           clip-path="url(#clipPath4150)"
           id="g4148">
          <g
             transform="translate(615,444.8872)"
             id="g4154">
            <path
               inkscape:connector-curvature="0"
               id="path4156"
               style="fill:#4d4d4d;fill-opacity:1;fill-rule:nonzero;stroke:none"
               d="m 0,0 0,-1 c 0,0.687 0.586,1.069 0.594,1.621 0.01,0.596 0.596,1.492 0.583,1.492 l -0.147,0 C 0.945,2.113 0.842,2.337 0.748,2.335 0.658,2.08 0.598,1.934 0.594,1.734 0.586,1.183 0,0.687 0,0" />
          </g>
          <g
             transform="translate(609.9033,227.3008)"
             id="g4158">
            <path
               inkscape:connector-curvature="0"
               id="path4160"
               style="fill:#4d4d4d;fill-opacity:1;fill-rule:nonzero;stroke:none"
               d="m 0,0 c -0.155,-0.053 -0.545,-0.146 -1.408,-0.174 -24.673,-0.779 -44.813,-3.248 -63.378,-7.762 -20.484,-4.974 -37.888,-11.419 -53.211,-19.703 -1.351,-0.73 -2.697,-1.463 -4.127,-2.242 0,12.545 0.027,121.999 -0.086,164.184 -0.009,2.975 0.911,4.493 3.787,6.246 11.896,7.257 24.858,13.177 39.626,18.099 13.331,4.441 26.431,7.532 38.934,9.184 8.979,1.187 18.227,1.849 27.172,2.489 3.597,0.258 7.196,0.514 10.789,0.805 0.796,0.064 1.425,0.113 1.91,0.127 0.019,-0.499 0.019,-1.159 0.019,-1.771 C 0.028,159.973 0.079,4.619 0.092,1.033 0.094,0.437 0.037,0.133 0,0 m -137.735,-29.881 c -1.429,0.779 -2.778,1.512 -4.128,2.242 -15.323,8.284 -32.728,14.729 -53.21,19.703 -18.566,4.514 -38.705,6.983 -63.378,7.762 -0.862,0.028 -1.253,0.121 -1.408,0.174 -0.037,0.133 -0.093,0.437 -0.091,1.033 0.011,3.586 0.062,158.94 0.063,168.449 0,0.612 0,1.272 0.021,1.771 0.483,-0.014 1.113,-0.063 1.91,-0.127 3.592,-0.291 7.189,-0.547 10.788,-0.805 8.944,-0.64 18.192,-1.302 27.172,-2.489 12.503,-1.652 25.602,-4.743 38.934,-9.184 14.768,-4.922 27.73,-10.842 39.625,-18.099 2.876,-1.753 3.796,-3.271 3.788,-6.246 -0.114,-42.185 -0.086,-151.639 -0.086,-164.184 m 156.123,19.399 c -0.043,3.084 0.008,183.63 0.005,192.48 -0.002,3.175 -0.003,6.773 -5.503,6.773 -0.477,0 -1.028,-0.018 -1.655,-0.046 -4.134,-0.184 -8.351,-0.329 -12.429,-0.469 -11.245,-0.386 -22.869,-0.786 -34.243,-2.073 -28.466,-3.222 -54.672,-10.794 -77.902,-22.512 -4.785,-2.413 -9.317,-5.23 -13.769,-7.953 -0.95,-0.58 -1.804,-1.159 -2.761,-1.736 -0.956,0.577 -1.871,1.156 -2.82,1.736 -4.454,2.723 -9.046,5.54 -13.832,7.953 -23.229,11.718 -49.435,19.29 -77.902,22.512 -11.373,1.287 -22.998,1.687 -34.242,2.073 -4.079,0.14 -8.296,0.285 -12.43,0.469 -0.628,0.028 -1.176,0.046 -1.653,0.046 -5.5,0 -5.5,-3.598 -5.502,-6.773 -0.002,-8.85 0.05,-189.396 0.006,-192.48 -0.038,-2.774 -0.065,-4.61 1.289,-5.981 1.222,-1.24 2.912,-1.342 4.684,-1.342 0.48,0 1.025,0.01 1.639,0.024 20.185,0.404 58.153,-4.416 58.153,-4.416 49.238,-4.074 76.871,-21.85 82.61,-26.176 5.739,4.326 33.312,22.102 82.549,26.176 0,0 37.938,4.82 58.123,4.416 0.614,-0.014 1.143,-0.024 1.625,-0.024 1.77,0 3.454,0.102 4.676,1.342 1.353,1.371 1.323,3.207 1.284,5.981" />
          </g>
          <g
             transform="translate(312.4805,178)"
             id="g4162">
            <path
               inkscape:connector-curvature="0"
               id="path4164"
               style="fill:#4d4d4d;fill-opacity:1;fill-rule:nonzero;stroke:none"
               d="m 0,0 335.114,0 c 0.092,0 0.406,0.705 0.406,1.172 l 0,238.415 c 0,0.541 -0.347,0.413 -0.461,0.413 L 0.067,240 c -0.155,0 -0.547,0.155 -0.547,-0.413 l 0,-238.415 C -0.48,0.646 -0.12,0 0,0 m 335.613,-18 -335.856,0 c -10.071,0 -18.237,8.58 -18.237,19.172 l 0,238.415 c 0,10.676 8.166,18.413 18.237,18.413 l 335.856,0 c 10.029,0 17.907,-7.557 17.907,-18.413 l 0,-238.415 C 353.52,-9.598 345.642,-18 335.613,-18" />
          </g>
          <g
             transform="translate(293.9727,120.4395)"
             id="g4166">
            <path
               inkscape:connector-curvature="0"
               id="path4168"
               style="fill:#4d4d4d;fill-opacity:1;fill-rule:nonzero;stroke:none"
               d="M 0,0 0,21.809 7.916,21.789 7.916,2 c 0,-1.32 0.659,-1.986 1.979,-2 l 29.685,0.02 0,-7.916 -31.664,0 C 2.639,-7.896 0,-5.264 0,0" />
          </g>
          <g
             transform="translate(347.4062,120.459)"
             id="g4170">
            <path
               inkscape:connector-curvature="0"
               id="path4172"
               style="fill:#4d4d4d;fill-opacity:1;fill-rule:nonzero;stroke:none"
               d="m 0,0 23.748,0 c 1.319,0 1.979,0.66 1.979,1.98 l 0,9.895 c 0,1.318 -0.66,1.979 -1.979,1.979 L 0,13.854 c -1.319,0 -1.979,-0.661 -1.979,-1.979 l 0,-9.895 C -1.979,0.66 -1.319,0 0,0 m 25.727,21.77 c 5.277,0 7.917,-2.639 7.917,-7.916 l 0,-13.874 c 0,-5.263 -2.64,-7.896 -7.917,-7.896 l -27.706,0 c -5.278,0 -7.917,2.639 -7.917,7.916 l 0,13.854 c 0,5.277 2.639,7.916 7.917,7.916 l 27.706,0 z" />
          </g>
          <g
             transform="translate(392.9229,112.543)"
             id="g4174">
            <path
               inkscape:connector-curvature="0"
               id="path4176"
               style="fill:#4d4d4d;fill-opacity:1;fill-rule:nonzero;stroke:none"
               d="m 0,0 c -5.277,0 -7.916,2.639 -7.916,7.916 l 0,13.854 c 0,5.277 2.639,7.916 7.916,7.916 l 35.623,0 0,-7.916 -33.644,0 C 0.66,21.77 0,21.109 0,19.791 L 0,9.896 c 0,-1.32 0.66,-1.98 1.979,-1.98 l 25.727,0 0,2.969 -13.852,0 0,7.916 21.769,0 L 35.623,0 0,0 Z" />
          </g>
          <g
             transform="translate(440.4199,142.2285)"
             id="g4178">
            <path
               inkscape:connector-curvature="0"
               id="path4180"
               style="fill:#4d4d4d;fill-opacity:1;fill-rule:nonzero;stroke:none"
               d="M 0,0 0,-29.666 -7.916,-29.686 -7.916,0 0,0 Z" />
          </g>
          <g
             transform="translate(461.7139,131.3437)"
             id="g4182">
            <path
               inkscape:connector-curvature="0"
               id="path4184"
               style="fill:#4d4d4d;fill-opacity:1;fill-rule:nonzero;stroke:none"
               d="m 0,0 0.475,0.416 11.874,10.469 9.894,0 -16.82,-14.842 16.82,-14.844 -9.894,0 L 0.475,-8.332 0,-7.916 l -9.42,0 0,-10.865 -7.916,-0.02 0,29.686 7.916,0 L -9.42,0 0,0 Z" />
          </g>
          <g
             transform="translate(521.5596,131.3437)"
             id="g4186">
            <path
               inkscape:connector-curvature="0"
               id="path4188"
               style="fill:#4d4d4d;fill-opacity:1;fill-rule:nonzero;stroke:none"
               d="m 0,0 c 1.319,0 1.979,0.33 1.979,0.99 l 0,0.989 c 0,0.66 -0.66,0.99 -1.979,0.99 l -25.728,0 0,-2.969 L 0,0 Z m -25.728,-18.801 -7.916,0 0,29.686 35.623,0 c 5.277,0 7.916,-2.639 7.916,-7.916 l 0,-2.989 c 0,-1.542 -0.66,-2.857 -1.979,-3.937 1.319,-1.096 1.979,-2.414 1.979,-3.959 l 0,-10.885 -7.916,0 0,9.897 c 0,0.658 -0.66,0.988 -1.979,0.988 l -25.728,0 0,-10.885 z" />
          </g>
          <g
             transform="translate(561.1982,126.3965)"
             id="g4190">
            <path
               inkscape:connector-curvature="0"
               id="path4192"
               style="fill:#4d4d4d;fill-opacity:1;fill-rule:nonzero;stroke:none"
               d="M 0,0 -4.017,7.105 -8.034,0 0,0 Z m -12.526,-7.916 -3.365,-5.938 -9.895,0 12.863,22.76 c 2.639,4.617 5.608,6.926 8.906,6.926 3.298,0 6.267,-2.309 8.906,-6.926 l 12.863,-22.76 -9.895,0 -3.364,5.938 -17.019,0 z" />
          </g>
          <g
             transform="translate(590.8242,131.3437)"
             id="g4194">
            <path
               inkscape:connector-curvature="0"
               id="path4196"
               style="fill:#4d4d4d;fill-opacity:1;fill-rule:nonzero;stroke:none"
               d="m 0,0 31.664,0 0,-7.916 -31.664,0 0,-10.885 -7.916,0 0,21.77 c 0,5.277 2.639,7.916 7.916,7.916 l 31.664,0 0,-7.916 -29.685,0 C 0.659,2.969 0,2.309 0,0.99 L 0,0 Z" />
          </g>
          <g
             transform="translate(642.2793,134.3125)"
             id="g4198">
            <path
               inkscape:connector-curvature="0"
               id="path4200"
               style="fill:#4d4d4d;fill-opacity:1;fill-rule:nonzero;stroke:none"
               d="m 0,0 -15.832,0 0,7.916 39.58,0 0,-7.916 -15.832,0 0,-21.75 L 0,-21.77 0,0 Z" />
          </g>
        </g>
      </g>
    </g>
  </g>
</svg>
