<?xml version="1.0" encoding="UTF-8" standalone="no"?>
<svg
   xmlns:dc="http://purl.org/dc/elements/1.1/"
   xmlns:cc="http://creativecommons.org/ns#"
   xmlns:rdf="http://www.w3.org/1999/02/22-rdf-syntax-ns#"
   xmlns:svg="http://www.w3.org/2000/svg"
   xmlns="http://www.w3.org/2000/svg"
   xmlns:sodipodi="http://sodipodi.sourceforge.net/DTD/sodipodi-0.dtd"
   xmlns:inkscape="http://www.inkscape.org/namespaces/inkscape"
   viewBox="0 0 551.99933 108.03053"
   height="108.03053"
   width="551.99933"
   xml:space="preserve"
   id="svg2"
   version="1.1"
   inkscape:version="0.91 r13725"
   sodipodi:docname="Logotipo - TecniloÌgica.svg"><sodipodi:namedview
     pagecolor="#ffffff"
     bordercolor="#666666"
     borderopacity="1"
     objecttolerance="10"
     gridtolerance="10"
     guidetolerance="10"
     inkscape:pageopacity="0"
     inkscape:pageshadow="2"
     inkscape:window-width="1280"
     inkscape:window-height="962"
     id="namedview3420"
     showgrid="false"
     fit-margin-top="0"
     fit-margin-left="0"
     fit-margin-right="0"
     fit-margin-bottom="0"
     inkscape:zoom="0.7064462"
     inkscape:cx="275.99907"
     inkscape:cy="331.20453"
     inkscape:window-x="-8"
     inkscape:window-y="-8"
     inkscape:window-maximized="1"
     inkscape:current-layer="svg2" /><metadata
     id="metadata8"><rdf:RDF><cc:Work
         rdf:about=""><dc:format>image/svg+xml</dc:format><dc:type
           rdf:resource="http://purl.org/dc/dcmitype/StillImage" /><dc:title></dc:title></cc:Work></rdf:RDF></metadata><defs
     id="defs6"><clipPath
       id="clipPath22"
       clipPathUnits="userSpaceOnUse"><path
         id="path20"
         d="m 0,841.89 595.28,0 L 595.28,0 0,0 Z"
         inkscape:connector-curvature="0" /></clipPath></defs><g
     transform="matrix(1.3333333,0,0,-1.3333333,-120.85426,338.08599)"
     id="g10"><g
       id="g16"><g
         clip-path="url(#clipPath22)"
         id="g18"><g
           transform="translate(129.9707,240.9985)"
           id="g96"><path
             id="path98"
             style="fill:#000000;fill-opacity:1;fill-rule:nonzero;stroke:none"
             d="m 0,0 -0.166,0.024 -10.82,-11.037 -1.506,23.579 -3.99,-3.344 -1.838,-27.566 -19.313,12.337 -1.697,-1.602 20.029,-17.563 -5.113,-34.285 19.709,0 -5.018,23.101 20.401,27.829 -2.125,1.888 -19.182,-19.134 -0.191,7.092 12.66,17.988 z"
             inkscape:connector-curvature="0" /></g><g
           transform="translate(118.9727,244.8135)"
           id="g100"><path
             id="path102"
             style="fill:#ec7a2f;fill-opacity:1;fill-rule:nonzero;stroke:none"
             d="m 0,0 c 0.764,-0.946 3.484,-1.267 5.713,-0.445 2.226,0.821 4.635,2.699 5.07,4.424 C 8.158,3.916 4.879,4.022 2.65,3.2 0.424,2.378 -0.762,0.945 0,0"
             inkscape:connector-curvature="0" /></g><g
           transform="translate(112.9883,232.2212)"
           id="g104"><path
             id="path106"
             style="fill:#000000;fill-opacity:1;fill-rule:nonzero;stroke:none"
             d="M 0,0 C -0.398,-0.661 -1.725,-0.832 -2.775,-0.198 -3.828,0.436 -4.936,1.828 -5.092,3.07 -3.824,2.971 -2.236,2.978 -1.184,2.343 -0.131,1.709 0.398,0.66 0,0"
             inkscape:connector-curvature="0" /></g><g
           transform="translate(129.5801,217.5962)"
           id="g108"><path
             id="path110"
             style="fill:#000000;fill-opacity:1;fill-rule:nonzero;stroke:none"
             d="M 0,0 C -0.234,-0.667 0.42,-1.705 1.48,-2.078 2.543,-2.451 4.172,-2.42 5.141,-1.807 4.332,-0.97 3.41,0.158 2.348,0.531 1.287,0.905 0.234,0.667 0,0"
             inkscape:connector-curvature="0" /></g><g
           transform="translate(109.166,204.9404)"
           id="g112"><path
             id="path114"
             style="fill:#000000;fill-opacity:1;fill-rule:nonzero;stroke:none"
             d="M 0,0 C -0.703,-0.604 -2.324,-0.412 -3.338,0.577 -4.354,1.567 -5.166,3.396 -4.912,4.791 -3.455,4.319 -1.582,3.874 -0.568,2.885 0.447,1.895 0.701,0.604 0,0"
             inkscape:connector-curvature="0" /></g><g
           transform="translate(320.1797,242.5303)"
           id="g116"><path
             id="path118"
             style="fill:#000000;fill-opacity:1;fill-rule:nonzero;stroke:none"
             d="M 0,0 0,-2.215 C 0.674,-2.284 1.609,-2.417 2.686,-2.685 3.895,-2.888 4.697,-3.156 5.1,-3.423 5.705,-3.894 6.174,-4.432 6.574,-5.17 6.912,-5.975 7.045,-6.778 7.115,-7.585 l 0,-40.663 c -0.07,-0.806 -0.203,-1.544 -0.541,-2.079 -0.334,-0.469 -0.869,-0.874 -1.474,-1.142 -0.403,-0.067 -0.938,-0.134 -1.545,-0.268 -0.602,0 -1.205,-0.067 -1.744,-0.067 l 0,-2.418 17.111,0 0,2.418 c -0.67,0 -1.276,0.067 -1.678,0.201 -0.535,0.134 -1.074,0.268 -1.609,0.538 -0.67,0.269 -1.209,0.671 -1.477,1.207 -0.267,0.537 -0.469,1.208 -0.469,2.08 l 0,48.046 -0.47,0.535 z"
             inkscape:connector-curvature="0" /></g><g
           transform="translate(356.0137,220.3174)"
           id="g120"><path
             id="path122"
             style="fill:#000000;fill-opacity:1;fill-rule:nonzero;stroke:none"
             d="m 0,0 c 1.273,0.941 2.816,1.343 4.631,1.343 1.81,0 3.353,-0.402 4.56,-1.343 1.207,-0.874 2.215,-2.014 2.952,-3.557 0.74,-1.34 1.275,-3.018 1.609,-5.032 0.34,-1.945 0.537,-3.825 0.537,-5.569 0,-5.099 -0.871,-9.058 -2.549,-11.877 -1.744,-2.887 -4.092,-4.296 -7.109,-4.296 -1.815,0 -3.358,0.403 -4.498,1.275 -1.209,0.875 -2.283,2.081 -3.086,3.558 -0.809,1.543 -1.344,3.29 -1.678,5.166 -0.469,2.014 -0.674,4.095 -0.607,6.374 -0.067,1.678 0.138,3.491 0.472,5.369 0.27,1.814 0.805,3.49 1.61,4.898 C -2.418,-2.081 -1.275,-0.874 0,0 m 4.762,4.028 c -5.235,0 -9.393,-1.679 -12.547,-5.17 -3.221,-3.553 -4.764,-7.985 -4.764,-13.485 0,-2.819 0.403,-5.437 1.34,-7.65 0.873,-2.282 2.148,-4.227 3.691,-5.904 1.545,-1.544 3.289,-2.819 5.368,-3.692 2.015,-0.805 4.095,-1.206 6.375,-1.206 2.617,0 5.033,0.468 7.181,1.409 2.213,0.937 4.09,2.347 5.703,4.225 1.477,1.61 2.616,3.625 3.358,6.04 0.803,2.416 1.203,4.831 1.203,7.313 0,5.503 -1.541,9.865 -4.762,13.154 C 13.752,2.349 9.662,4.028 4.762,4.028"
             inkscape:connector-curvature="0" /></g><g
           transform="translate(261.4648,219.7803)"
           id="g124"><path
             id="path126"
             style="fill:#ec7a2f;fill-opacity:1;fill-rule:nonzero;stroke:none"
             d="m 0,0 c 0.674,-0.469 1.143,-0.939 1.543,-1.61 0.268,-0.672 0.471,-1.475 0.471,-2.213 l 0,-21.675 c 0,-0.806 -0.135,-1.544 -0.471,-2.146 -0.334,-0.471 -0.869,-0.807 -1.543,-1.075 -0.4,-0.134 -0.871,-0.201 -1.477,-0.268 -0.535,0 -1.138,-0.067 -1.677,-0.067 l 0,-2.418 17.179,0 0,2.418 c -0.605,0 -1.209,0.067 -1.744,0.201 -0.674,0.134 -1.209,0.268 -1.677,0.538 -0.674,0.269 -1.143,0.671 -1.477,1.207 -0.4,0.47 -0.537,1.141 -0.537,2.013 l 0,20.13 c 0.269,0.403 0.603,0.872 1.072,1.477 0.404,0.671 1.076,1.275 1.881,1.744 0.738,0.604 1.678,1.073 2.75,1.476 1.006,0.402 2.148,0.605 3.488,0.605 1.68,0 3.09,-0.674 4.229,-2.081 1.209,-1.341 1.812,-3.221 1.812,-5.771 l 0,-17.983 c 0,-0.806 -0.201,-1.544 -0.468,-2.146 -0.336,-0.471 -0.874,-0.807 -1.545,-1.075 -0.401,-0.134 -0.938,-0.201 -1.543,-0.268 -0.674,0 -1.276,-0.067 -1.811,-0.067 l 0,-2.418 17.109,0 0,2.418 c -0.738,0 -1.339,0.067 -1.677,0.134 -0.471,0.134 -0.938,0.268 -1.477,0.535 -0.738,0.27 -1.207,0.672 -1.541,1.142 -0.269,0.538 -0.406,1.209 -0.338,2.079 l 0,18.187 c 0,3.489 -0.804,6.306 -2.48,8.387 C 26.439,3.488 23.955,4.565 20.6,4.565 19.057,4.565 17.648,4.362 16.441,4.028 15.299,3.558 14.227,3.156 13.354,2.552 12.615,2.079 11.744,1.41 10.938,0.604 10.066,-0.134 9.395,-0.803 8.793,-1.407 l -0.203,0 0,4.965 -0.471,0.47 -11.674,-0.807 0,-2.347 c 0.739,0 1.41,-0.069 2.012,-0.203 C -0.936,0.537 -0.4,0.337 0,0"
             inkscape:connector-curvature="0" /></g><g
           transform="translate(312.5957,240.7822)"
           id="g128"><path
             id="path130"
             style="fill:#ec7a2f;fill-opacity:1;fill-rule:nonzero;stroke:none"
             d="m 0,0 c -0.938,0.943 -2.012,1.345 -3.355,1.345 -1.274,0 -2.28,-0.471 -3.153,-1.41 -0.871,-0.941 -1.342,-2.081 -1.342,-3.357 0,-1.273 0.471,-2.415 1.342,-3.354 0.873,-0.937 1.879,-1.41 3.153,-1.41 1.277,0 2.417,0.473 3.291,1.479 0.871,1.006 1.273,2.212 1.273,3.555 C 1.209,-1.945 0.807,-0.872 0,0"
             inkscape:connector-curvature="0" /></g><g
           transform="translate(312.6621,223.8086)"
           id="g132"><path
             id="path134"
             style="fill:#ec7a2f;fill-opacity:1;fill-rule:nonzero;stroke:none"
             d="m 0,0 -12.41,-0.808 0,-2.346 c 0.736,0 1.476,-0.136 2.347,-0.337 0.872,-0.2 1.543,-0.404 2.012,-0.736 0.606,-0.406 1.008,-0.941 1.408,-1.613 0.338,-0.604 0.539,-1.273 0.539,-2.012 l 0,-21.674 c 0,-0.806 -0.134,-1.544 -0.47,-2.146 -0.336,-0.471 -0.803,-0.807 -1.477,-1.076 -0.402,-0.133 -1.004,-0.2 -1.541,-0.267 -0.539,0 -1.14,-0.067 -1.679,-0.067 l 0,-2.418 16.91,0 0,2.418 c -0.604,0 -1.143,0.067 -1.678,0.201 -0.471,0.133 -1.006,0.268 -1.477,0.537 -0.67,0.27 -1.209,0.672 -1.543,1.207 -0.267,0.537 -0.468,1.209 -0.468,2.081 l 0,28.585 z"
             inkscape:connector-curvature="0" /></g><g
           transform="translate(206.0391,221.6602)"
           id="g136"><path
             id="path138"
             style="fill:#ec7a2f;fill-opacity:1;fill-rule:nonzero;stroke:none"
             d="m 0,0 c 1.543,0 2.752,-0.336 3.625,-1.006 1.006,-0.671 1.676,-1.545 2.281,-2.685 0.535,-1.006 0.871,-2.282 1.074,-3.756 0.268,-1.543 0.336,-2.955 0.336,-4.296 l -16.171,0 c 0.064,3.691 1.003,6.575 2.681,8.656 C -4.564,-1.006 -2.482,0 0,0 M 6.643,1.544 C 4.764,2.349 2.619,2.686 0.066,2.686 c -2.482,0 -4.695,-0.471 -6.709,-1.548 -2.011,-1.004 -3.689,-2.346 -5.031,-4.024 -1.476,-1.811 -2.484,-3.756 -3.154,-5.97 -0.738,-2.215 -1.143,-4.364 -1.143,-6.645 0,-2.55 0.338,-4.965 1.076,-7.247 0.668,-2.212 1.678,-4.227 3.02,-5.973 1.34,-1.677 3.084,-3.02 5.232,-4.024 2.149,-1.008 4.565,-1.479 7.383,-1.479 3.221,0 6.037,0.806 8.52,2.483 2.486,1.679 4.429,3.894 5.906,6.644 l -2.484,1.546 c -1.411,-2.618 -2.887,-4.363 -4.362,-5.303 -1.609,-1.007 -3.422,-1.477 -5.502,-1.477 -2.078,0 -3.89,0.405 -5.367,1.142 -1.474,0.805 -2.683,1.877 -3.556,3.288 -1.006,1.409 -1.676,3.019 -2.081,4.964 -0.468,1.813 -0.669,3.959 -0.669,6.174 l 23.214,0 0,2.351 c 0,2.145 -0.334,4.091 -0.869,5.904 -0.47,1.811 -1.344,3.355 -2.418,4.695 -1.074,1.412 -2.617,2.485 -4.429,3.357"
             inkscape:connector-curvature="0" /></g><g
           transform="translate(235.4961,218.2368)"
           id="g140"><path
             id="path142"
             style="fill:#ec7a2f;fill-opacity:1;fill-rule:nonzero;stroke:none"
             d="M 0,0 C 1.006,1.345 2.014,2.215 3.02,2.685 4.027,3.221 5.168,3.423 6.311,3.423 7.246,3.423 8.188,3.29 9.061,3.087 9.865,2.819 10.537,2.349 10.938,1.61 10.873,1.075 10.738,0.27 10.4,-0.937 10.133,-2.012 10,-3.084 10,-4.16 c 0,-0.805 0.4,-1.608 1.209,-2.348 0.668,-0.739 1.811,-1.14 3.221,-1.14 1.275,0 2.215,0.468 2.818,1.343 0.535,1.006 0.803,2.012 0.803,3.221 0,2.816 -1.143,5.098 -3.287,6.775 C 12.686,5.299 9.865,6.109 6.377,6.109 3.893,6.109 1.613,5.638 -0.469,4.561 -2.549,3.557 -4.361,2.215 -5.703,0.538 -7.18,-1.274 -8.252,-3.154 -9.059,-5.367 c -0.804,-2.078 -1.207,-4.429 -1.207,-6.912 0,-5.636 1.477,-10.133 4.362,-13.554 2.82,-3.29 6.843,-4.967 11.877,-4.967 2.75,0 5.369,0.805 7.918,2.416 2.55,1.612 4.562,3.827 6.173,6.644 l -2.281,1.543 c -1.342,-2.281 -2.752,-3.959 -4.295,-5.1 -1.545,-1.141 -3.422,-1.611 -5.769,-1.611 -3.153,0 -5.705,1.343 -7.719,4.095 -1.877,2.75 -2.885,6.441 -2.885,10.802 0,2.819 0.27,5.235 0.873,7.249 C -1.541,-2.75 -0.871,-1.14 0,0"
             inkscape:connector-curvature="0" /></g><g
           transform="translate(175.7773,223.2686)"
           id="g144"><path
             id="path146"
             style="fill:#ec7a2f;fill-opacity:1;fill-rule:nonzero;stroke:none"
             d="m 0,0 0,10.871 -6.443,0 0,-10.871 -6.508,0 0,-3.421 6.375,0 0,-23.752 c 0,-2.686 0.535,-4.834 1.81,-6.308 1.143,-1.479 3.221,-2.217 6.108,-2.217 2.013,0 3.691,0.203 5.031,0.604 1.41,0.473 2.887,1.073 4.43,1.678 l 0,2.551 c -0.471,-0.134 -1.276,-0.267 -2.414,-0.336 -1.141,-0.134 -2.082,-0.134 -2.618,-0.134 -1.275,0 -2.281,0.134 -3.087,0.47 -0.741,0.402 -1.342,0.872 -1.745,1.613 -0.335,0.736 -0.605,1.541 -0.671,2.481 -0.135,1.005 -0.268,2.281 -0.202,3.69 l 0,19.66 9.998,0 0,3.421 z"
             inkscape:connector-curvature="0" /></g><g
           transform="translate(482.6992,200.9912)"
           id="g148"><path
             id="path150"
             style="fill:#000000;fill-opacity:1;fill-rule:nonzero;stroke:none"
             d="m 0,0 c 0.672,1.142 1.611,2.081 2.816,2.888 1.278,0.803 2.686,1.544 4.231,2.079 1.476,0.604 3.221,1.209 5.232,1.811 L 12.146,-5.567 C 11.205,-6.643 10.199,-7.648 8.857,-8.454 7.582,-9.257 6.107,-9.662 4.43,-9.662 c -1.614,0 -2.953,0.47 -3.959,1.343 -1.008,0.938 -1.61,2.417 -1.543,4.362 0,1.541 0.4,2.817 1.072,3.957 m 2.482,20.199 c 0.942,0.401 1.948,0.604 3.02,0.604 1.611,0 2.82,-0.337 3.689,-1.006 0.875,-0.607 1.545,-1.409 2.014,-2.281 0.404,-0.741 0.672,-1.611 0.873,-2.55 0.135,-0.805 0.135,-1.409 0.135,-1.744 l 0,-3.491 C 11.141,9.127 8.857,8.257 5.637,7.18 2.35,6.106 0.137,5.368 -0.871,4.9 -1.68,4.565 -2.615,4.162 -3.555,3.558 -4.561,3.022 -5.369,2.418 -5.904,1.677 -6.711,0.874 -7.246,-0.132 -7.648,-1.14 c -0.336,-1.073 -0.604,-2.348 -0.538,-3.691 -0.066,-2.55 0.873,-4.695 2.549,-6.308 1.678,-1.544 3.826,-2.416 6.442,-2.416 2.482,0 4.631,0.471 6.375,1.346 1.81,0.937 3.422,2.212 5.033,3.89 l 0.199,0 c 0.27,-1.611 1.006,-2.885 2.151,-3.757 1.072,-0.874 2.546,-1.276 4.361,-1.276 1.006,0 2.014,0.067 2.883,0.335 0.07,0 0.07,0 0.134,0.067 l 0,3.288 c -0.603,0 -1.003,0.136 -1.273,0.336 -0.672,0.337 -1.141,0.805 -1.477,1.341 -0.336,0.54 -0.537,1.276 -0.537,2.214 0,3.087 0.067,5.974 0.201,8.59 0.069,2.617 0.069,5.636 0.069,8.994 0,2.415 -0.336,4.36 -0.94,5.836 -0.671,1.477 -1.543,2.684 -2.752,3.558 -1.209,0.937 -2.55,1.474 -4.027,1.744 -1.476,0.27 -3.287,0.403 -5.232,0.403 -1.479,0 -2.883,-0.203 -4.43,-0.673 -1.477,-0.468 -2.816,-1.006 -3.824,-1.677 -1.274,-0.736 -2.28,-1.678 -3.018,-2.684 -0.805,-1.007 -1.209,-2.011 -1.209,-3.087 0,-1.072 0.268,-2.011 0.871,-2.885 0.535,-0.804 1.41,-1.207 2.617,-1.207 1.276,0 2.348,0.337 3.157,1.005 0.668,0.739 1.004,1.477 1.004,2.283 0,0.804 -0.069,1.676 -0.336,2.549 -0.2,0.939 -0.334,1.613 -0.334,2.081 0.402,0.468 1.072,0.805 2.011,1.14"
             inkscape:connector-curvature="0" /></g><g
           transform="translate(431.0977,240.7822)"
           id="g152"><path
             id="path154"
             style="fill:#000000;fill-opacity:1;fill-rule:nonzero;stroke:none"
             d="m 0,0 c -0.938,0.943 -2.012,1.345 -3.354,1.345 -1.275,0 -2.281,-0.471 -3.154,-1.41 -0.871,-0.941 -1.342,-2.081 -1.342,-3.357 0,-1.273 0.471,-2.415 1.342,-3.354 0.873,-0.937 1.879,-1.41 3.154,-1.41 1.342,0 2.416,0.473 3.354,1.479 0.807,1.006 1.273,2.212 1.273,3.555 C 1.273,-1.945 0.807,-0.872 0,0"
             inkscape:connector-curvature="0" /></g><g
           transform="translate(423.1133,219.582)"
           id="g156"><path
             id="path158"
             style="fill:#000000;fill-opacity:1;fill-rule:nonzero;stroke:none"
             d="m 0,0 c 0.605,-0.406 1.076,-0.941 1.41,-1.613 0.334,-0.604 0.537,-1.274 0.537,-2.012 l 0,-21.675 c 0,-0.805 -0.203,-1.544 -0.537,-2.146 -0.269,-0.471 -0.738,-0.807 -1.41,-1.075 -0.471,-0.134 -0.941,-0.201 -1.477,-0.268 -0.601,0 -1.207,-0.066 -1.744,-0.066 l 0,-2.418 16.912,0 0,2.418 c -0.607,0 -1.209,0.066 -1.677,0.2 -0.473,0.134 -0.942,0.268 -1.477,0.538 -0.74,0.269 -1.209,0.671 -1.476,1.207 -0.338,0.537 -0.541,1.208 -0.541,2.08 l 0,28.586 -0.467,0.471 -12.412,-0.808 0,-2.347 c 0.738,0 1.541,-0.135 2.345,-0.337 C -1.143,0.535 -0.471,0.332 0,0"
             inkscape:connector-curvature="0" /></g><g
           transform="translate(462.3008,219.8472)"
           id="g160"><path
             id="path162"
             style="fill:#000000;fill-opacity:1;fill-rule:nonzero;stroke:none"
             d="m 0,0 c 0,-0.536 -0.201,-1.34 -0.471,-2.547 -0.267,-1.076 -0.468,-2.148 -0.468,-3.223 0,-0.806 0.404,-1.608 1.209,-2.349 0.738,-0.738 1.81,-1.139 3.22,-1.139 1.276,0 2.213,0.467 2.815,1.342 0.539,1.006 0.806,2.012 0.806,3.221 0,2.817 -1.004,5.099 -3.22,6.776 -2.145,1.608 -4.897,2.418 -8.387,2.418 -2.483,0 -4.764,-0.471 -6.844,-1.548 -2.148,-1.004 -3.959,-2.347 -5.303,-4.024 -1.474,-1.811 -2.548,-3.691 -3.353,-5.904 -0.738,-2.079 -1.141,-4.43 -1.141,-6.912 0,-5.636 1.408,-10.133 4.293,-13.554 2.821,-3.29 6.844,-4.968 11.879,-4.968 2.75,0 5.367,0.806 7.986,2.416 2.481,1.613 4.559,3.828 6.106,6.645 l -2.215,1.543 c -1.277,-2.281 -2.754,-3.959 -4.297,-5.101 -1.607,-1.14 -3.554,-1.61 -5.767,-1.61 -3.155,0 -5.772,1.343 -7.717,4.095 -1.949,2.75 -2.887,6.441 -2.887,10.801 0,2.82 0.268,5.236 0.805,7.249 0.537,2.012 1.273,3.623 2.148,4.763 0.869,1.345 1.879,2.214 2.885,2.685 1.072,0.535 2.215,0.738 3.289,0.738 1.006,0 1.945,-0.134 2.75,-0.336 C -1.074,1.208 -0.404,0.738 0,0"
             inkscape:connector-curvature="0" /></g><g
           transform="translate(394.9961,188.8486)"
           id="g164"><path
             id="path166"
             style="fill:#000000;fill-opacity:1;fill-rule:nonzero;stroke:none"
             d="m 0,0 c 2.686,0 5.102,-0.067 7.182,-0.136 2.08,-0.134 3.422,-0.268 4.093,-0.335 1.274,-0.267 2.149,-0.941 2.75,-1.744 0.672,-0.874 0.942,-1.945 1.008,-3.29 -0.066,-2.748 -1.008,-4.762 -3.019,-6.104 -2.012,-1.343 -4.764,-1.948 -8.323,-2.015 -1.947,0.067 -3.691,0.201 -5.099,0.603 -1.342,0.403 -2.483,0.874 -3.356,1.545 -0.804,0.605 -1.408,1.276 -1.81,2.012 -0.336,0.808 -0.535,1.612 -0.535,2.485 0,1.811 0.601,3.288 1.675,4.494 C -4.428,-1.278 -2.549,-0.471 0,0 m -3.086,30.327 c 0.537,0.874 1.209,1.546 1.949,2.014 0.803,0.402 1.744,0.669 2.817,0.669 2.08,0 3.689,-0.869 4.83,-2.547 1.074,-1.612 1.676,-3.758 1.676,-6.575 0,-2.485 -0.536,-4.566 -1.676,-6.243 -1.141,-1.608 -2.682,-2.414 -4.697,-2.414 -1.879,0 -3.29,0.806 -4.43,2.483 -1.139,1.608 -1.811,3.756 -1.811,6.375 0,1.208 0.135,2.281 0.338,3.354 0.199,1.14 0.535,2.081 1.004,2.884 m 8.254,4.833 c -1.139,0.271 -2.215,0.337 -3.221,0.337 -3.824,0 -7.045,-1.008 -9.459,-3.156 -2.551,-2.148 -3.759,-4.898 -3.759,-8.186 0,-2.212 0.669,-4.159 1.876,-5.837 1.276,-1.677 3.022,-3.02 5.305,-4.094 l 0,-0.536 C -5.906,12.95 -7.246,12.011 -8.119,11.003 -9.055,9.93 -9.459,8.788 -9.459,7.514 c 0,-0.939 0.199,-1.88 0.605,-2.549 0.334,-0.672 0.803,-1.209 1.409,-1.746 0.603,-0.402 1.207,-0.739 2.011,-1.14 0.737,-0.268 1.477,-0.538 2.213,-0.806 l 0,-0.47 c -2.951,-0.067 -5.365,-0.87 -7.244,-2.215 -1.947,-1.407 -2.887,-3.353 -2.887,-5.77 0,-2.953 1.278,-5.233 3.957,-6.776 2.62,-1.544 6.581,-2.349 11.948,-2.349 3.152,0 5.904,0.335 8.119,0.939 2.215,0.669 4.092,1.477 5.703,2.55 1.477,1.141 2.615,2.348 3.355,3.894 0.67,1.474 1.075,3.087 1.075,4.764 0,1.675 -0.272,3.085 -0.739,4.227 -0.607,1.14 -1.343,2.145 -2.351,3.018 -0.869,0.872 -1.811,1.543 -2.951,2.014 -1.073,0.468 -2.149,0.669 -3.289,0.738 -0.803,0 -2.08,0.067 -3.825,0.201 C 5.84,6.172 4.363,6.241 3.357,6.241 2.352,6.306 1.477,6.306 0.541,6.372 -0.4,6.441 -1.207,6.575 -1.877,6.709 c -0.74,0.201 -1.344,0.469 -1.812,0.939 -0.467,0.471 -0.739,1.14 -0.739,2.014 0,0.87 0.272,1.544 0.873,2.014 0.535,0.535 1.143,0.87 1.678,1.071 l 4.295,0 c 3.287,0 6.24,1.072 8.789,3.153 2.484,2.149 3.691,4.765 3.691,7.854 0,1.207 -0.201,2.347 -0.603,3.622 -0.402,1.274 -1.076,2.349 -1.947,3.357 l 0,0.266 8.254,0 0,3.421 -12.278,0 c -1.074,0.339 -2.15,0.606 -3.156,0.74"
             inkscape:connector-curvature="0" /></g><g
           transform="translate(352.8848,231.0527)"
           id="g168"><path
             id="path170"
             style="fill:#ec7a2f;fill-opacity:1;fill-rule:nonzero;stroke:none"
             d="M 0,0 C 2.096,-2.605 9.578,-3.484 15.703,-1.225 21.826,1.035 28.453,6.198 29.645,10.94 22.426,10.767 13.41,11.059 7.285,8.797 1.166,6.537 -2.1,2.599 0,0"
             inkscape:connector-curvature="0" /></g></g></g></g></svg>