<?xml version="1.0" encoding="utf-8"?>
<!-- Generator: Adobe Illustrator 16.0.0, SVG Export Plug-In . SVG Version: 6.00 Build 0)  -->
<!DOCTYPE svg PUBLIC "-//W3C//DTD SVG 1.1//EN" "http://www.w3.org/Graphics/SVG/1.1/DTD/svg11.dtd">
<svg version="1.1" id="Capa_1" xmlns="http://www.w3.org/2000/svg" xmlns:xlink="http://www.w3.org/1999/xlink" x="0px" y="0px"
	 width="243.023px" height="106.977px" viewBox="0 0 243.023 106.977" enable-background="new 0 0 243.023 106.977"
	 xml:space="preserve">
<g>
	<g>
		<polygon fill="#FFFFFF" points="76.536,43.553 78.91,40.178 76.542,40.25 76.55,35.814 69.381,40.468 68.583,40.492 
			52.427,23.474 48.226,41.113 35.023,41.517 16.924,68.36 41.345,68.741 40.803,93.769 58.383,81.168 66.523,90.09 69.767,73.009 
			76.491,68.19 		"/>
		<g>
			<g>
				
					<linearGradient id="SVGID_1_" gradientUnits="userSpaceOnUse" x1="-11899.9902" y1="2935.5791" x2="-11964.0898" y2="2935.5791" gradientTransform="matrix(0.2069 -0.9783 0.9783 0.2069 -344.4151 -12215.6855)">
					<stop  offset="0.6502" style="stop-color:#ECA638"/>
					<stop  offset="0.7107" style="stop-color:#E5883F;stop-opacity:0.8788"/>
					<stop  offset="0.7782" style="stop-color:#DF6E45;stop-opacity:0.7438"/>
					<stop  offset="0.8479" style="stop-color:#DB5C4A;stop-opacity:0.6044"/>
					<stop  offset="0.9203" style="stop-color:#D9514C;stop-opacity:0.4594"/>
					<stop  offset="1" style="stop-color:#D84D4D;stop-opacity:0.3"/>
				</linearGradient>
				<polygon opacity="0.7" fill="url(#SVGID_1_)" points="41.565,58.522 76.551,35.814 76.491,68.188 40.803,93.768 				"/>
				
					<linearGradient id="SVGID_2_" gradientUnits="userSpaceOnUse" x1="-12539.3096" y1="982.3447" x2="-12550.1934" y2="920.6221" gradientTransform="matrix(0.1491 -0.9887 0.9887 0.1491 977.6285 -12489.748)">
					<stop  offset="0.0465" style="stop-color:#6E150E;stop-opacity:0.8"/>
					<stop  offset="0.1056" style="stop-color:#8C1913;stop-opacity:0.8204"/>
					<stop  offset="0.2103" style="stop-color:#BB201A;stop-opacity:0.8566"/>
					<stop  offset="0.2905" style="stop-color:#D9241E;stop-opacity:0.8843"/>
					<stop  offset="0.3361" style="stop-color:#E42620;stop-opacity:0.9"/>
					<stop  offset="0.4513" style="stop-color:#AA1E17;stop-opacity:0.8565"/>
					<stop  offset="0.5506" style="stop-color:#7F1711;stop-opacity:0.819"/>
					<stop  offset="0.6009" style="stop-color:#6E150E;stop-opacity:0.8"/>
					<stop  offset="0.6414" style="stop-color:#7B150F;stop-opacity:0.8203"/>
					<stop  offset="0.8044" style="stop-color:#AA1713;stop-opacity:0.902"/>
					<stop  offset="0.9292" style="stop-color:#C81815;stop-opacity:0.9645"/>
					<stop  offset="1" style="stop-color:#D31816"/>
				</linearGradient>
				<polygon opacity="0.7" fill="url(#SVGID_2_)" points="58.627,69.011 16.924,68.359 35.023,41.516 78.91,40.178 				"/>
				
					<linearGradient id="SVGID_3_" gradientUnits="userSpaceOnUse" x1="-12110.5332" y1="2461.46" x2="-12110.5332" y2="2432.8613" gradientTransform="matrix(0.1693 -0.9856 0.9856 0.1693 -303.0625 -12293.8242)">
					<stop  offset="0.0738" style="stop-color:#4CB2D1"/>
					<stop  offset="0.1639" style="stop-color:#359AC7;stop-opacity:0.9321"/>
					<stop  offset="0.2744" style="stop-color:#2083BE;stop-opacity:0.8489"/>
					<stop  offset="0.3793" style="stop-color:#1376B9;stop-opacity:0.7698"/>
					<stop  offset="0.4719" style="stop-color:#0F71B7;stop-opacity:0.7"/>
					<stop  offset="0.4952" style="stop-color:#1577B9;stop-opacity:0.7132"/>
					<stop  offset="0.613" style="stop-color:#2D91C4;stop-opacity:0.7802"/>
					<stop  offset="0.7346" style="stop-color:#3EA3CB;stop-opacity:0.8492"/>
					<stop  offset="0.861" style="stop-color:#49AED0;stop-opacity:0.921"/>
					<stop  offset="1" style="stop-color:#4CB2D1"/>
				</linearGradient>
				<polygon opacity="0.6" fill="url(#SVGID_3_)" points="42.762,64.046 52.427,23.473 74.717,46.955 66.523,90.089 				"/>
			</g>
			<g>
				<path fill="#717070" d="M124.592,17.404c-3.758,0.062-8.642,1.907-8.636,9.627v8.853h-6.552l0.002,1.438h6.55v31.269h3.695
					V37.322h7.523l-0.002-1.438h-7.521v-8.791c-0.002-4.168,0.414-8.699,5.4-8.704c0.125,0,0.931,0.026,1.611,0.103
					c0.723,0.081,1.544,0.175,1.728,0.217v-0.915C127.391,17.559,125.507,17.39,124.592,17.404z"/>
				<path fill="#717070" d="M98.622,36.273c-0.733-0.12-1.519-0.185-2.361-0.184c-4.683,0.003-9.152,2.527-11.506,7.029
					c-0.048-2.168-0.147-5.964-0.246-7.235h-2.6c0.206,1.776,0.345,7.116,0.346,9.099v23.635h4.363V52.9
					c-0.006-9.634,3.837-15.377,10.74-15.382c0.308,0,0.605-0.009,0.893,0.035c6.886,1.049,7.854,7.333,7.858,12.062v18.986h2.612
					V49.606C108.716,43.374,106.361,37.552,98.622,36.273z"/>
				<path fill="#717070" d="M155.649,35.884l0.006,8.045c-2.692-4.658-7.102-7.215-11.93-7.788
					c-0.798-0.095-1.626-0.163-2.445-0.163c-9.361,0.007-15.693,7.124-15.686,16.826c0.005,8.971,5.881,15.612,14.22,16.617
					c0.842,0.101,1.716,0.142,2.604,0.106c5.344-0.208,10.513-2.628,13.264-7.562V84.96h2.6V35.884H155.649z M129.952,53.032
					c-0.006-8.27,3.768-15.547,12.445-15.552c0.416-0.001,0.823,0.005,1.225,0.054c7.158,0.875,12.101,7.576,12.105,15.18
					c0.006,8.336-6.021,15.225-14.404,15.385c-0.446,0.008-0.885-0.005-1.312-0.057C132.689,67.149,129.958,60.507,129.952,53.032z"
					/>
			</g>
			<g>
				
					<linearGradient id="SVGID_4_" gradientUnits="userSpaceOnUse" x1="-11900.1445" y1="2935.6064" x2="-11964.2441" y2="2935.6064" gradientTransform="matrix(0.2069 -0.9783 0.9783 0.2069 -344.4151 -12215.6855)">
					<stop  offset="0.6502" style="stop-color:#ECA638"/>
					<stop  offset="0.7107" style="stop-color:#E5883F;stop-opacity:0.8788"/>
					<stop  offset="0.7782" style="stop-color:#DF6E45;stop-opacity:0.7438"/>
					<stop  offset="0.8479" style="stop-color:#DB5C4A;stop-opacity:0.6044"/>
					<stop  offset="0.9203" style="stop-color:#D9514C;stop-opacity:0.4594"/>
					<stop  offset="1" style="stop-color:#D84D4D;stop-opacity:0.3"/>
				</linearGradient>
				<polygon opacity="0.7" fill="url(#SVGID_4_)" points="41.56,58.68 76.545,35.972 76.485,68.346 40.797,93.925 				"/>
				
					<linearGradient id="SVGID_5_" gradientUnits="userSpaceOnUse" x1="-12539.4658" y1="982.3623" x2="-12550.3496" y2="920.6396" gradientTransform="matrix(0.1491 -0.9887 0.9887 0.1491 977.6285 -12489.748)">
					<stop  offset="0.0465" style="stop-color:#6E150E;stop-opacity:0.8"/>
					<stop  offset="0.1056" style="stop-color:#8C1913;stop-opacity:0.8204"/>
					<stop  offset="0.2103" style="stop-color:#BB201A;stop-opacity:0.8566"/>
					<stop  offset="0.2905" style="stop-color:#D9241E;stop-opacity:0.8843"/>
					<stop  offset="0.3361" style="stop-color:#E42620;stop-opacity:0.9"/>
					<stop  offset="0.4513" style="stop-color:#AA1E17;stop-opacity:0.8565"/>
					<stop  offset="0.5506" style="stop-color:#7F1711;stop-opacity:0.819"/>
					<stop  offset="0.6009" style="stop-color:#6E150E;stop-opacity:0.8"/>
					<stop  offset="0.6414" style="stop-color:#7B150F;stop-opacity:0.8203"/>
					<stop  offset="0.8044" style="stop-color:#AA1713;stop-opacity:0.902"/>
					<stop  offset="0.9292" style="stop-color:#C81815;stop-opacity:0.9645"/>
					<stop  offset="1" style="stop-color:#D31816"/>
				</linearGradient>
				<polygon opacity="0.7" fill="url(#SVGID_5_)" points="58.622,69.168 16.918,68.517 35.017,41.673 78.904,40.335 				"/>
				
					<linearGradient id="SVGID_6_" gradientUnits="userSpaceOnUse" x1="-12110.6895" y1="2461.4814" x2="-12110.6895" y2="2432.8818" gradientTransform="matrix(0.1693 -0.9856 0.9856 0.1693 -303.0625 -12293.8242)">
					<stop  offset="0.0738" style="stop-color:#4CB2D1"/>
					<stop  offset="0.1639" style="stop-color:#359AC7;stop-opacity:0.9321"/>
					<stop  offset="0.2744" style="stop-color:#2083BE;stop-opacity:0.8489"/>
					<stop  offset="0.3793" style="stop-color:#1376B9;stop-opacity:0.7698"/>
					<stop  offset="0.4719" style="stop-color:#0F71B7;stop-opacity:0.7"/>
					<stop  offset="0.4952" style="stop-color:#1577B9;stop-opacity:0.7132"/>
					<stop  offset="0.613" style="stop-color:#2D91C4;stop-opacity:0.7802"/>
					<stop  offset="0.7346" style="stop-color:#3EA3CB;stop-opacity:0.8492"/>
					<stop  offset="0.861" style="stop-color:#49AED0;stop-opacity:0.921"/>
					<stop  offset="1" style="stop-color:#4CB2D1"/>
				</linearGradient>
				<polygon opacity="0.6" fill="url(#SVGID_6_)" points="42.756,64.203 52.421,23.63 74.711,47.112 66.517,90.246 				"/>
			</g>
		</g>
	</g>
	<g>
		<g>
			<text transform="matrix(1 0 0 1 167.084 84.1055)" fill="#717070" font-family="'Raleway-Light'" font-size="14.0518">Solutions</text>
		</g>
	</g>
</g>
</svg>
