<?xml version="1.0" encoding="UTF-8" standalone="no"?>
<!DOCTYPE svg PUBLIC "-//W3C//DTD SVG 1.1//EN" "http://www.w3.org/Graphics/SVG/1.1/DTD/svg11.dtd">
<svg width="100%" height="100%" viewBox="0 0 2657 1352" version="1.1" xmlns="http://www.w3.org/2000/svg" xmlns:xlink="http://www.w3.org/1999/xlink" xml:space="preserve" style="fill-rule:evenodd;clip-rule:evenodd;stroke-linejoin:round;stroke-miterlimit:1.41421;">
    <g id="Capa-1" transform="matrix(4.16667,0,0,4.16667,-401.385,-530.033)">
        <rect x="492.389" y="217.795" width="38.4" height="115.492" style="fill:rgb(1,2,3);fill-rule:nonzero;"/>
        <clipPath id="_clip1">
            <path d="M538.121,136.267C543.143,142.273 546.173,150.002 546.173,158.443C546.173,159.082 546.112,159.703 546.078,160.332C548.951,161.526 551.456,163.159 553.547,165.251C575.846,187.549 544.397,255.15 483.305,316.242C422.213,377.334 354.613,408.782 332.314,386.484C310.016,364.185 339.762,294.883 400.854,233.79C427.371,207.273 455.431,186.673 480.527,173.66C479.053,170.657 478.006,167.416 477.454,164.002C450.687,180.41 422.564,202.634 395.564,229.635C314.265,310.935 273.929,404.68 307.921,438.672C341.914,472.664 435.376,434.314 516.675,353.015C597.974,271.716 636.324,178.254 602.332,144.262C593.9,135.83 581.924,131.835 567.448,131.835C558.539,131.834 548.686,133.346 538.121,136.267Z"/>
        </clipPath>
        <g clip-path="url(#_clip1)">
            <path d="M244.596,374.263L545.5,84.076L667.438,210.517L366.533,500.705L244.596,374.263Z" style="fill:url(#_Linear2);fill-rule:nonzero;"/>
        </g>
        <path d="M562.421,131.49C561.045,131.607 559.438,131.744 557.717,131.891C556.008,132.129 554.175,132.323 552.36,132.626C548.726,133.216 545.128,133.993 542.446,134.638C539.335,135.439 537.26,135.972 537.26,135.972C537.242,135.967 537.258,135.995 537.263,135.996C537.263,135.996 537.671,136.504 538.383,137.393C538.781,137.903 539.348,138.638 539.957,139.568C541.207,141.405 542.623,144.03 543.631,146.818C544.654,149.603 545.242,152.526 545.466,154.736C545.584,155.841 545.641,156.767 545.65,157.415C545.665,158.063 545.673,158.433 545.673,158.433L545.673,158.453L545.562,160.635C545.553,160.639 545.569,160.669 545.578,160.663C545.578,160.663 545.819,160.766 546.242,160.947C546.464,161.042 546.778,161.182 547.149,161.361C547.894,161.716 548.863,162.24 549.78,162.841C551.64,164.023 553.184,165.595 553.184,165.595L553.198,165.609C553.198,165.609 553.423,165.867 553.814,166.318C554.01,166.543 554.249,166.817 554.521,167.13C554.792,167.446 555.123,167.784 555.38,168.23C555.915,169.104 556.676,170.042 557.17,171.236C557.441,171.817 557.758,172.402 558.014,173.025C558.233,173.664 558.455,174.314 558.679,174.963C558.929,175.604 559.077,176.276 559.219,176.939C559.368,177.6 559.514,178.251 559.656,178.88C559.817,180.163 559.977,181.359 560.086,182.389C560.165,184.462 560.218,185.843 560.218,185.843C560.218,185.843 560.194,186.441 560.151,187.561C560.129,188.121 560.103,188.812 560.072,189.624C559.984,190.433 559.886,191.364 559.775,192.406C559.283,196.566 558.111,202.479 555.862,209.337C553.628,216.193 550.406,224.005 546.284,232.044C542.186,240.094 537.286,248.412 531.985,256.464C521.409,272.605 509.148,287.566 499.522,298.359C494.685,303.738 490.544,308.122 487.604,311.15C484.648,314.161 482.959,315.882 482.959,315.882L482.944,315.898C482.944,315.898 481.223,317.587 478.211,320.543C475.183,323.483 470.799,327.624 465.421,332.463C454.625,342.087 439.665,354.347 423.525,364.922C415.472,370.224 407.155,375.125 399.104,379.221C391.065,383.344 383.253,386.566 376.396,388.799C369.539,391.048 363.626,392.22 359.465,392.712C358.424,392.823 357.493,392.921 356.684,393.009C355.872,393.04 355.18,393.066 354.621,393.088C353.5,393.131 352.903,393.154 352.903,393.154C352.903,393.154 351.521,393.101 349.448,393.023C348.42,392.913 347.223,392.754 345.94,392.592C345.31,392.45 344.66,392.303 344,392.154C343.336,392.013 342.663,391.865 342.023,391.614C341.374,391.391 340.725,391.169 340.086,390.95C339.463,390.693 338.877,390.377 338.296,390.106C337.102,389.611 336.164,388.849 335.29,388.315C334.844,388.058 334.507,387.727 334.192,387.456C333.878,387.182 333.605,386.944 333.379,386.748C332.928,386.356 332.67,386.133 332.67,386.133L332.657,386.118C332.657,386.118 332.43,385.857 332.034,385.401C331.836,385.173 331.595,384.897 331.319,384.58C331.041,384.263 330.716,383.916 330.453,383.466C329.906,382.586 329.147,381.63 328.64,380.426C328.367,379.838 328.037,379.249 327.786,378.616C327.56,377.971 327.332,377.315 327.102,376.659C326.844,376.013 326.697,375.331 326.545,374.663C326.389,373.995 326.235,373.338 326.085,372.703C325.915,371.406 325.732,370.198 325.615,369.158C325.508,367.063 325.435,365.666 325.435,365.666C325.435,365.666 325.45,365.065 325.476,363.94C325.489,363.376 325.505,362.681 325.524,361.865C325.597,361.05 325.679,360.113 325.773,359.064C326.191,354.876 327.25,348.914 329.366,341.98C331.469,335.047 334.542,327.133 338.52,318.977C342.48,310.813 347.255,302.373 352.456,294.204C362.83,277.828 375.004,262.679 384.617,251.79C389.449,246.361 393.597,241.947 396.545,238.901C399.513,235.873 401.208,234.143 401.208,234.143L401.223,234.129C401.223,234.129 402.338,233.034 404.289,231.117C406.228,229.187 409.063,226.496 412.5,223.305C419.393,216.949 428.823,208.713 438.786,201.153C448.69,193.518 459.108,186.573 467.143,181.749C471.163,179.338 474.569,177.427 476.971,176.123C479.65,174.688 481.182,173.869 481.182,173.869L481.168,173.837C480.889,173.259 479.859,171.205 479.105,168.781C478.725,167.589 478.421,166.375 478.233,165.456C478.094,164.844 477.806,163.057 477.814,163.187L477.781,163.208C477.781,163.208 476.165,164.218 473.335,165.985C470.9,167.522 467.438,169.745 463.35,172.512C455.157,178.017 444.516,185.784 434.292,194.071C424.035,202.318 414.217,211.093 407.025,217.85C403.43,221.23 400.467,224.08 398.426,226.111C396.376,228.132 395.205,229.287 395.205,229.287L395.192,229.301C395.192,229.301 394.63,229.868 393.578,230.931C392.523,231.991 390.982,233.551 389.044,235.562C385.164,239.576 379.683,245.374 373.34,252.544C360.65,266.864 344.662,286.866 331.03,308.476C324.202,319.263 317.939,330.415 312.775,341.222C307.607,352.025 303.545,362.476 300.791,371.665C298.008,380.85 296.591,388.755 295.944,394.32C295.641,397.107 295.489,399.307 295.423,400.807C295.371,402.309 295.343,403.111 295.343,403.111C295.343,403.111 295.342,403.718 295.341,404.78C295.327,405.843 295.377,407.361 295.481,409.18C295.72,412.81 296.312,417.677 297.787,422.335C298.494,424.667 299.385,426.949 300.422,428.991C300.901,430.032 301.49,430.973 301.995,431.893C302.578,432.766 303.068,433.635 303.633,434.358C304.171,435.101 304.665,435.781 305.157,436.343C305.635,436.914 306.039,437.424 306.418,437.803C307.151,438.582 307.57,439.027 307.57,439.027L307.585,439.041C307.585,439.041 308.029,439.46 308.809,440.194C309.188,440.573 309.699,440.976 310.27,441.456C310.83,441.949 311.512,442.442 312.251,442.984C312.976,443.55 313.841,444.044 314.712,444.631C315.63,445.14 316.57,445.733 317.608,446.218C319.646,447.266 321.921,448.176 324.248,448.904C328.896,450.419 333.757,451.068 337.387,451.35C339.206,451.475 340.724,451.544 341.787,451.543C342.85,451.555 343.457,451.562 343.457,451.562C343.457,451.562 344.254,451.544 345.751,451.51C347.246,451.463 349.438,451.339 352.215,451.072C357.763,450.499 365.654,449.189 374.83,446.527C384.011,443.896 394.462,439.965 405.266,434.922C416.074,429.881 427.228,423.733 438.012,417.005C459.617,403.574 479.589,387.719 493.868,375.109C501.015,368.804 506.794,363.354 510.791,359.491C512.795,357.563 514.347,356.029 515.403,354.977C516.461,353.931 517.026,353.372 517.026,353.372L517.04,353.357C517.04,353.357 517.598,352.793 518.646,351.734C519.696,350.678 521.23,349.126 523.158,347.123C527.021,343.124 532.473,337.346 538.777,330.199C551.386,315.92 567.24,295.948 580.671,274.342C587.398,263.558 593.546,252.403 598.586,241.595C603.63,230.791 607.559,220.34 610.191,211.159C612.852,201.982 614.16,194.091 614.733,188.544C615,185.766 615.124,183.574 615.17,182.079C615.204,180.583 615.221,179.785 615.221,179.785C615.221,179.785 615.212,178.975 615.193,177.355C615.178,176.545 615.114,175.533 615.061,174.319C614.952,173.107 614.862,171.69 614.634,170.083C614.195,166.875 613.489,162.842 611.762,158.266C610.072,153.708 607.312,148.546 602.686,143.908C598.033,139.356 592.947,136.563 588.419,134.853C587.301,134.371 586.18,134.06 585.114,133.738C584.582,133.577 584.062,133.42 583.555,133.267C583.036,133.15 582.531,133.035 582.039,132.924C581.05,132.717 580.12,132.471 579.223,132.328C578.325,132.194 577.476,132.068 576.677,131.948C573.476,131.542 571.055,131.402 569.444,131.391C567.832,131.354 567.027,131.335 567.027,131.335C567.027,131.335 565.184,131.397 562.421,131.49ZM354.655,394.087C355.225,394.065 355.929,394.038 356.757,394.006C357.58,393.918 358.525,393.817 359.583,393.705C363.809,393.207 369.792,392.019 376.706,389.751C383.62,387.498 391.48,384.254 399.557,380.113C407.647,375.997 415.995,371.077 424.075,365.758C440.268,355.147 455.265,342.855 466.087,333.208C471.478,328.358 475.872,324.208 478.908,321.262C481.927,318.298 483.651,316.604 483.651,316.604L483.665,316.59C483.665,316.59 485.359,314.865 488.322,311.847C491.269,308.811 495.419,304.417 500.269,299.025C509.917,288.204 522.21,273.208 532.82,257.014C538.139,248.934 543.058,240.586 547.176,232.496C551.317,224.42 554.56,216.56 556.813,209.645C559.081,202.732 560.269,196.749 560.768,192.524C560.88,191.465 560.981,190.519 561.069,189.697C561.101,188.87 561.128,188.166 561.15,187.595C561.194,186.453 561.217,185.845 561.217,185.845C561.217,185.845 561.164,184.432 561.083,182.311C560.972,181.256 560.808,180.025 560.641,178.708C560.495,178.059 560.344,177.388 560.191,176.705C560.045,176.021 559.891,175.328 559.632,174.661C559.401,173.988 559.169,173.315 558.942,172.652C558.676,172.004 558.347,171.393 558.064,170.787C557.546,169.547 556.754,168.559 556.193,167.647C555.921,167.182 555.577,166.826 555.294,166.496C555.008,166.166 554.757,165.879 554.552,165.643C554.141,165.172 553.906,164.902 553.906,164.902L553.891,164.887C553.891,164.887 552.271,163.239 550.327,162.004C549.368,161.375 548.358,160.829 547.582,160.46C547.195,160.274 546.87,160.127 546.639,160.029C546.61,160.018 546.594,160.01 546.594,160.01L546.673,158.453L546.673,158.433C546.673,158.433 546.664,158.052 546.649,157.384C546.64,156.718 546.583,155.765 546.459,154.628C546.23,152.353 545.623,149.344 544.571,146.476C543.532,143.605 542.074,140.903 540.788,139.012C540.162,138.056 539.58,137.299 539.168,136.775C539.057,136.637 538.995,136.558 538.995,136.558C538.995,136.558 540.469,136.179 542.682,135.609C545.345,134.97 548.915,134.199 552.518,133.614C554.318,133.312 556.133,133.122 557.825,132.885C559.529,132.74 561.118,132.604 562.48,132.488C565.212,132.397 567.031,132.335 567.031,132.335C567.031,132.335 567.828,132.354 569.417,132.391C571.009,132.401 573.394,132.54 576.544,132.94C577.33,133.056 578.164,133.181 579.048,133.312C579.93,133.453 580.842,133.695 581.813,133.899C582.296,134.008 582.791,134.119 583.299,134.234C583.798,134.385 584.307,134.539 584.829,134.697C585.872,135.012 586.972,135.316 588.064,135.787C592.493,137.46 597.447,140.184 601.979,144.616C606.481,149.129 609.171,154.157 610.826,158.617C612.516,163.093 613.211,167.056 613.642,170.213C613.867,171.794 613.956,173.191 614.063,174.385C614.115,175.583 614.179,176.58 614.194,177.38C614.212,178.98 614.221,179.78 614.221,179.78C614.221,179.78 614.203,180.568 614.171,182.046C614.125,183.525 614.003,185.692 613.738,188.442C613.17,193.935 611.875,201.761 609.23,210.883C606.614,220.007 602.705,230.41 597.68,241.172C592.66,251.939 586.532,263.059 579.822,273.813C566.429,295.359 550.61,315.289 538.026,329.538C531.735,336.671 526.295,342.439 522.44,346.427C520.516,348.426 518.984,349.977 517.936,351.031C516.89,352.087 516.333,352.65 516.333,352.65L516.319,352.665C516.319,352.665 515.756,353.222 514.698,354.267C513.645,355.315 512.095,356.848 510.097,358.771C506.107,362.626 500.341,368.067 493.206,374.358C478.958,386.942 459.029,402.763 437.483,416.157C426.729,422.866 415.609,428.994 404.843,434.015C394.08,439.04 383.678,442.951 374.554,445.566C365.432,448.213 357.607,449.51 352.114,450.077C349.363,450.341 347.197,450.464 345.718,450.51C344.24,450.544 343.451,450.561 343.451,450.561C343.451,450.561 342.851,450.555 341.802,450.543C340.753,450.544 339.254,450.476 337.461,450.353C333.885,450.075 329.101,449.435 324.55,447.951C322.271,447.237 320.046,446.348 318.057,445.325C317.043,444.852 316.129,444.273 315.232,443.777C314.384,443.203 313.539,442.724 312.835,442.173C312.115,441.645 311.45,441.165 310.905,440.684C310.35,440.217 309.852,439.825 309.483,439.456C308.724,438.742 308.291,438.333 308.291,438.333L308.277,438.32C308.277,438.32 307.869,437.886 307.156,437.128C306.788,436.759 306.394,436.264 305.93,435.707C305.451,435.162 304.97,434.499 304.447,433.776C303.895,433.073 303.421,432.225 302.851,431.376C302.359,430.479 301.784,429.563 301.317,428.547C300.306,426.554 299.435,424.325 298.742,422.041C297.299,417.481 296.715,412.694 296.479,409.117C296.377,407.324 296.327,405.826 296.341,404.777C296.342,403.729 296.343,403.128 296.343,403.128C296.343,403.128 296.371,402.338 296.422,400.853C296.487,399.369 296.637,397.195 296.938,394.435C297.579,388.924 298.983,381.082 301.749,371.953C304.486,362.82 308.528,352.416 313.677,341.653C318.82,330.886 325.066,319.768 331.876,309.011C345.471,287.458 361.425,267.496 374.09,253.205C380.419,246.05 385.89,240.263 389.763,236.257C391.696,234.25 393.235,232.693 394.288,231.635C395.339,230.574 395.898,230.009 395.898,230.009L395.913,229.994C395.913,229.994 397.081,228.841 399.127,226.824C401.163,224.798 404.122,221.953 407.709,218.579C414.887,211.836 424.685,203.078 434.921,194.848C445.123,186.579 455.737,178.831 463.91,173.34C467.987,170.58 471.44,168.363 473.869,166.831C475.917,165.551 477.088,164.82 477.088,164.82C477.088,164.82 477.155,165.156 477.255,165.661C477.449,166.606 477.761,167.857 478.152,169.084C478.749,171.032 479.668,173.024 479.867,173.443C479.851,173.453 479.859,173.449 479.868,173.445C479.834,173.463 479.706,173.531 479.306,173.744C478.657,174.091 477.706,174.598 476.494,175.245C474.082,176.553 470.661,178.472 466.628,180.892C458.562,185.734 448.112,192.703 438.178,200.358C428.186,207.941 418.732,216.197 411.821,222.57C408.376,225.77 405.535,228.468 403.59,230.402C401.633,232.324 400.515,233.422 400.515,233.422L400.501,233.436C400.501,233.436 398.802,235.17 395.826,238.206C392.871,241.26 388.713,245.685 383.868,251.127C374.229,262.045 362.022,277.235 351.613,293.667C346.394,301.864 341.599,310.337 337.619,318.542C333.623,326.738 330.529,334.7 328.409,341.691C326.275,348.682 325.203,354.713 324.779,358.964C324.684,360.029 324.599,360.98 324.526,361.807C324.506,362.639 324.49,363.346 324.476,363.92C324.45,365.067 324.436,365.678 324.436,365.678C324.436,365.678 324.508,367.107 324.618,369.247C324.738,370.312 324.925,371.553 325.102,372.884C325.255,373.539 325.414,374.216 325.575,374.903C325.732,375.593 325.884,376.294 326.15,376.965C326.388,377.645 326.625,378.323 326.859,378.992C327.12,379.65 327.462,380.264 327.748,380.876C328.278,382.126 329.066,383.13 329.64,384.047C329.916,384.516 330.255,384.883 330.546,385.215C330.835,385.547 331.087,385.837 331.295,386.075C331.711,386.553 331.949,386.825 331.949,386.825L331.963,386.84C331.963,386.84 332.233,387.075 332.705,387.486C332.941,387.692 333.228,387.941 333.556,388.228C333.887,388.511 334.242,388.856 334.707,389.128C335.619,389.689 336.607,390.481 337.847,391C338.452,391.282 339.064,391.61 339.712,391.877C340.375,392.105 341.049,392.335 341.722,392.567C342.388,392.827 343.081,392.982 343.765,393.126C344.447,393.28 345.118,393.431 345.768,393.577C347.085,393.745 348.316,393.908 349.372,394.02C351.491,394.1 352.904,394.154 352.904,394.154C352.904,394.154 353.513,394.131 354.655,394.087ZM479.869,173.444C479.878,173.44 479.885,173.436 479.869,173.444Z" style="fill:white;fill-rule:nonzero;"/>
        <clipPath id="_clip3">
            <path d="M480.335,158.443C480.335,175.695 494.319,189.679 511.57,189.679C528.82,189.679 542.805,175.695 542.805,158.443C542.805,141.193 528.82,127.208 511.57,127.208C494.319,127.208 480.335,141.193 480.335,158.443Z"/>
        </clipPath>
        <g clip-path="url(#_clip3)">
            <path d="M462.096,165.554L504.46,108.97L561.044,151.333L518.68,207.918L462.096,165.554Z" style="fill:url(#_Radial4);fill-rule:nonzero;"/>
        </g>
        <path d="M176.94,217.795L215.172,217.795L215.172,291.673C215.172,298.998 214.03,305.916 211.747,312.424C209.463,318.933 205.881,324.625 201.004,329.499C196.127,334.374 191.009,337.796 185.653,339.768C178.209,342.53 169.271,343.911 158.839,343.911C152.805,343.911 146.221,343.488 139.088,342.643C131.955,341.796 125.992,340.121 121.199,337.613C116.406,335.106 112.022,331.541 108.046,326.921C104.071,322.301 101.35,317.539 99.884,312.635C97.516,304.747 96.332,297.759 96.332,291.673L96.332,217.795L134.564,217.795L134.564,293.432C134.564,300.193 136.438,305.476 140.189,309.278C143.938,313.082 149.14,314.983 155.794,314.983C162.392,314.983 167.564,313.11 171.315,309.363C175.065,305.616 176.94,300.305 176.94,293.432L176.94,217.795Z" style="fill:rgb(1,2,3);fill-rule:nonzero;"/>
        <path d="M293.81,217.795L329.589,217.795L376.281,286.399L376.281,217.795L412.396,217.795L412.396,341.796L376.281,341.796L329.844,273.711L329.844,341.796L293.81,341.796L293.81,217.795Z" style="fill:rgb(1,2,3);fill-rule:nonzero;"/>
        <path d="M679.573,294.513L665.887,249.937L652.343,294.513L679.573,294.513ZM687.522,321.326L644.02,321.326L637.977,341.796L598.854,341.796L645.459,217.795L687.254,217.795L733.851,341.796L693.726,341.796L687.522,321.326Z" style="fill:rgb(1,2,3);fill-rule:nonzero;"/>
    </g>
    <defs>
        <linearGradient id="_Linear2" x1="0" y1="0" x2="1" y2="0" gradientUnits="userSpaceOnUse" gradientTransform="matrix(285.221,-275.062,275.062,285.221,318.326,424.209)"><stop offset="0%" style="stop-color:rgb(50,123,191);stop-opacity:1"/><stop offset="15%" style="stop-color:rgb(49,125,193);stop-opacity:1"/><stop offset="25%" style="stop-color:rgb(82,176,228);stop-opacity:1"/><stop offset="34%" style="stop-color:rgb(221,238,252);stop-opacity:1"/><stop offset="37%" style="stop-color:rgb(234,246,254);stop-opacity:1"/><stop offset="46%" style="stop-color:rgb(68,174,227);stop-opacity:1"/><stop offset="50%" style="stop-color:rgb(15,159,219);stop-opacity:1"/><stop offset="62%" style="stop-color:rgb(50,123,191);stop-opacity:1"/><stop offset="100%" style="stop-color:rgb(50,123,191);stop-opacity:1"/></linearGradient>
        <radialGradient id="_Radial4" cx="0" cy="0" r="1" gradientUnits="userSpaceOnUse" gradientTransform="matrix(18.5277,-24.7473,20.356,15.24,495.551,146.63)"><stop offset="0%" style="stop-color:white;stop-opacity:1"/><stop offset="9%" style="stop-color:white;stop-opacity:1"/><stop offset="43%" style="stop-color:rgb(238,113,69);stop-opacity:1"/><stop offset="62%" style="stop-color:rgb(229,35,32);stop-opacity:1"/><stop offset="100%" style="stop-color:rgb(229,35,32);stop-opacity:1"/></radialGradient>
    </defs>
</svg>
